<svg xmlns="http://www.w3.org/2000/svg" width="62.303" height="70"><path fill="#001b57" d="M33.17 69.966c-.409-.081-.655-.272-1.144-.886a3.286 3.286 0 0 0-1.117-1.033c-.248-.133-.489-.134-.486 0a1.84 1.84 0 0 0 .213.4c.212.332.252.457.165.511a10.127 10.127 0 0 1-1.659-.2 3.007 3.007 0 0 1-.548-.262 4.669 4.669 0 0 0-.636-.313 2.482 2.482 0 0 1-.511-.267c-.2-.146-.21-.148-.287-.044a4.615 4.615 0 0 0-.274.573 1.79 1.79 0 0 0-.188.876c.006.394 0 .416-.156.475-.239.091-.569-.082-.9-.472a1.211 1.211 0 0 0-.356-.325 1.568 1.568 0 0 0-.355.122 3.286 3.286 0 0 1-.945.176c-.756.061-.976.153-1.128.471-.286.6-.585-.285-.311-.922a4.228 4.228 0 0 1 .635-.791c.653-.673.733-.79.733-1.07a.488.488 0 0 0-.467-.542 4.544 4.544 0 0 0-1.611.906.757.757 0 0 1-.469.25 6.307 6.307 0 0 0-.8.131c-.591.126-.622.141-.831.4a1.165 1.165 0 0 1-.262.265 1.105 1.105 0 0 1-.264-.174c-.194-.155-.282-.178-.784-.209a1.9 1.9 0 0 0-.944.1l-.379.132-.23-.219a4.543 4.543 0 0 0-1.093-.6l-.863-.38-.135-.343a2.647 2.647 0 0 0-.649-1.111 4.065 4.065 0 0 0-1.932.076c-.378.128-.44.171-.552.387-.15.289-.269.326-.507.157-.159-.113-.265-.126-1.026-.126-.791 0-.868.01-1.138.154l-.29.154-.212-.162a1.133 1.133 0 0 0-.617-.208c-.223-.025-.63-.081-.905-.124a1.188 1.188 0 0 0-.657-.007c-.294.134-.436.09-.633-.2-.183-.266-.471-.429-.642-.364a1.185 1.185 0 0 0-.242.441c-.283.74-.335.768-1.038.551l-.411-.132-.175.167c-.217.208-.257.328-.179.535a.21.21 0 0 1-.059.282c-.19.19-.249.16-.626-.316-.3-.375-.3-.519 0-.573.32-.058.426-.124.533-.331s.063-.32-.224-.679c-.128-.161-.128-.17-.026-.438a1.584 1.584 0 0 1 .831-.8c.492-.249.543-.584.111-.73-.368-.124-.374-.233-.039-.759.116-.182.136-.3.137-.8 0-.658.035-.729.383-.834a4.1 4.1 0 0 0 1.076-.743c.079-.128-.036-.357-.35-.7a1.2 1.2 0 0 0-.9-.513.431.431 0 0 1-.483-.329A1.8 1.8 0 0 0 2.22 57.8c-.18 0-.3-.159-.4-.527a2.2 2.2 0 0 0-.788-1.053c-.242-.1-.3-.256-.233-.576a2.711 2.711 0 0 0-.137-1.351c-.162-.267-.149-.475.034-.558a1.045 1.045 0 0 0 .406-.642c.071-.249-.027-.382-.524-.711-.377-.25-.578-.485-.577-.677a1.88 1.88 0 0 1 .243-.444 1.5 1.5 0 0 0 .243-.506c0-.189-.106-.376-.213-.376a.232.232 0 0 1-.156-.129c-.056-.105-.047-.159.049-.289a1.273 1.273 0 0 1 .754-.433c.284 0 .34.155.207.577-.075.24.1.354.608.4.6.057.67.123.751.721a1.012 1.012 0 0 0 .159.526 3.305 3.305 0 0 0 1.126.175.427.427 0 0 0 .06-.264 1.552 1.552 0 0 1 .83-1.4 5.049 5.049 0 0 0 .706-.435c.482-.35.722-.44.99-.368.239.064.345.275.316.63-.037.451-.018.459.7.291a2.1 2.1 0 0 0 .968-.405 1.34 1.34 0 0 1 .977-.384.876.876 0 0 1 .967.742.844.844 0 0 1-.123.341c-.1.17-.153.2-.316.183s-.217-.067-.318-.262c-.13-.252-.333-.338-.517-.218-.072.047-.047.118.144.405a1.837 1.837 0 0 1 .308.789 1.114 1.114 0 0 0 .237.615 1.008 1.008 0 0 1 .2.295 1.633 1.633 0 0 0 .306.4 6.392 6.392 0 0 1 .648.909c.4.663.531.8.676.7l.711-.486a3.405 3.405 0 0 0 .782-.663 7.381 7.381 0 0 1 .655-.745c.47-.479.514-.508.757-.508a1.069 1.069 0 0 1 .993.63c.2.353.239.39.686.6.509.238.689.4 1.621 1.5a7.009 7.009 0 0 0 .687.721l.208.159.177-.17a1.555 1.555 0 0 0 .279-.389 2.212 2.212 0 0 1 .7-.829 1.532 1.532 0 0 1 .579-.09 3.143 3.143 0 0 0 .906-.156 2.3 2.3 0 0 1 1.228-.1 2.4 2.4 0 0 1 1.059.225 5.227 5.227 0 0 1 1.373 1.268 4.487 4.487 0 0 0 1.567 1.467 13.949 13.949 0 0 0 2.826 1.383 5.725 5.725 0 0 0 1.844.29c.656 0 .659 0 1.065-.236a2.732 2.732 0 0 1 1.5-.529c.552 0 .731.077 1.932.866.967.636 1.191.743 1.545.743.27 0 .385-.138.385-.46a.613.613 0 0 1 .2-.5 5.145 5.145 0 0 0 .47-.7 5.248 5.248 0 0 1 2.166-2.264 2.659 2.659 0 0 1 1.034-.274c.335-.037.655-.08.712-.1a2.306 2.306 0 0 0 .693-.985c.061-.336.125-.424.344-.47a2.337 2.337 0 0 0 .51-.218 1.353 1.353 0 0 1 .459-.176 5.427 5.427 0 0 1 1.432 1.015.5.5 0 0 1-.041.287 4.532 4.532 0 0 0-.351 1.176c-.032.309-.041.322-.313.447-.154.071-.346.16-.427.2-.19.092-.285.335-.339.862-.024.234-.093.672-.153.973a3.185 3.185 0 0 0-.079.745.483.483 0 0 1-.3.61 3.493 3.493 0 0 0-1.023 1.253c-.195.335-.274.4-.848.749a3.686 3.686 0 0 1-1.087.487 1.967 1.967 0 0 0-.673.276c-.12.093-.4.295-.631.449-.621.423-.7.694-.214.694a1.361 1.361 0 0 0 .922-.3.409.409 0 0 1 .412-.143 2.006 2.006 0 0 0 1.313-.628c.254-.277.26-.279.564-.243.286.034.33.02.651-.2a.93.93 0 0 1 .714-.241 1 1 0 0 0 .614-.15 1.057 1.057 0 0 1 .438-.152.544.544 0 0 0 .56-.315c.033-.1.12-.647.192-1.224a8.9 8.9 0 0 1 .24-1.323c.06-.151.207-.507.327-.791a2.9 2.9 0 0 0 .219-.7.5.5 0 0 1 .188-.365c.1-.1.459-.539.792-.98.557-.737.643-.823 1.081-1.08a3.123 3.123 0 0 1 .548-.279 8.881 8.881 0 0 0 .847-.3 3.634 3.634 0 0 1 3.633.142 1.433 1.433 0 0 0 1.393.016c.4-.182 1.132-.865 1.132-1.053q0-.2-.5-.3a1.047 1.047 0 0 1-.385-.18.366.366 0 0 1-.168-.375 1.591 1.591 0 0 1 .129-.5c.175-.384.066-.627-.33-.732-.266-.071-.253-.253.036-.515a.963.963 0 0 1 .33-.223c.048 0 .112.112.15.263.107.426.219.488.781.429.777-.081.934-.02 1.064.414s.153.445 1.094-.147a6.284 6.284 0 0 1 .9-.47l.371-.139v-.312a1.425 1.425 0 0 1 .278-.946c.218-.26.359-.284.7-.123s.551.112.673-.156c.059-.13.048-.193-.069-.4s-.127-.274-.073-.394c.085-.188.227-.185.513.009a2.529 2.529 0 0 0 .48.244c.313.111.414.192.414.336s-.173.238-.386.238a.408.408 0 0 0-.437.248c-.129.25-.113.337.124.647.283.371.282.585 0 .92a.854.854 0 0 1-.294.254c-.114 0-.34.265-.34.4a3.369 3.369 0 0 0 .125.544 2.48 2.48 0 0 1 0 1.571 5.039 5.039 0 0 1-3.073 2.3 8.877 8.877 0 0 1-1.9.177c-1.617.058-1.622.06-1.877.567a5.788 5.788 0 0 1-2.105 2.145 14.14 14.14 0 0 1-1.429.562c-.6.208-1.273.468-1.491.578-.752.379-1.339.909-1.339 1.211 0 .171.475.463.754.462a16.264 16.264 0 0 0 3.17-.613 8.22 8.22 0 0 1 2.434-.36 3.69 3.69 0 0 1 1.376.187 7.042 7.042 0 0 0 1.088.228l.456.042.166.321a7.2 7.2 0 0 0 .433.7 6.008 6.008 0 0 1 .374.591 1.263 1.263 0 0 0 .281.354.417.417 0 0 1 .114.559 3.241 3.241 0 0 0-.149.559 8.906 8.906 0 0 1-.228.869c-.115.349-.172.44-.322.509a2.1 2.1 0 0 0-.426.312c-.348.327-.427.357-.744.289a2.193 2.193 0 0 0-1.313.246c-.2.108-.318.14-.372.1a1.143 1.143 0 0 0-.827-.321 1.126 1.126 0 0 0-.6.075c-.28.145-.356.124-.647-.175-.337-.347-.54-.429-.827-.335a1.124 1.124 0 0 1-.4.05c-.165-.019-.183-.044-.211-.292s-.068-.3-.3-.476a.662.662 0 0 0-.552-.189.627.627 0 0 1-.492-.14 1.425 1.425 0 0 0-.822-.293c-.226 0-.393.186-.539.6a7.164 7.164 0 0 1-.731 1.241 4.1 4.1 0 0 1-.916.57 5.735 5.735 0 0 1-3.25.876 9.254 9.254 0 0 1-3.166-.556 8.528 8.528 0 0 0-2.759-.476 1.733 1.733 0 0 0-.523.056 2.023 2.023 0 0 0-.361.393 5.914 5.914 0 0 1-.832.8c-.516.411-.572.474-.514.583a1.655 1.655 0 0 0 1.012.582c.477.112.579.2.439.366a2.386 2.386 0 0 1-2.183.19 14.41 14.41 0 0 1-.846-.374 1.54 1.54 0 0 0-.5-.183c-.03.018.013.149.1.29s.132.286.109.322c-.061.095-.374.131-.667.073Zm2-.755a4.586 4.586 0 0 0-.45-.411l-.99-.841a5.707 5.707 0 0 0-2.237-1.182 3.115 3.115 0 0 0-1.486-.1c-.115.073-.171.613-.07.675a.641.641 0 0 0 .306.017 2.369 2.369 0 0 1 1.118.3 3.274 3.274 0 0 1 1.071 1.06q.57.875.414-.309c-.017-.131 0-.186.077-.2a6.341 6.341 0 0 1 1.1.5c.902.473 1.144.573 1.144.491Zm-8.8-.748a4.8 4.8 0 0 0 .254-1.658 1.752 1.752 0 0 0-.523-.879 11.106 11.106 0 0 0-1.24-.673 3.682 3.682 0 0 1-1.355-.848 2.529 2.529 0 0 1-.683-1.323c0-.21.012-.229.112-.176a1.812 1.812 0 0 1 .349.466 4.41 4.41 0 0 0 2.393 1.721 5.036 5.036 0 0 1 1.8 1.118c.463.458.579.491.691.2.157-.413-.078-.905-.626-1.313a1.817 1.817 0 0 0-1.432-.476c-.645-.034-.768-.057-.841-.156a.27.27 0 0 1-.064-.179c.072-.223.988-.345 1.639-.218a2.72 2.72 0 0 1 1.776 1.275 1.08 1.08 0 0 1 .2.615 1.34 1.34 0 0 1-.529 1.168c-.34.307-.41.448-.263.527.127.068.463-.037.735-.231a1.357 1.357 0 0 0 .583-.969l.067-.406h.576c.7-.006 1.009-.059 1.057-.185.059-.153-.015-.206-.287-.206-.361 0-.559-.144-1.2-.87-.98-1.116-1.473-1.264-3.395-1.014a3.026 3.026 0 0 1-1.133-.023c-1.161-.2-1.7-.542-1.894-1.221a1.7 1.7 0 0 1 .095-1.254 1.053 1.053 0 0 1 1.693-.085c.171.225.261.235.334.037.066-.179-.139-.564-.391-.735a1.635 1.635 0 0 0-1.035-.171 2.125 2.125 0 0 0-1.019.817 2.479 2.479 0 0 0-.389 1.519 5.546 5.546 0 0 0 1.418 2.89c.943 1.239.965 1.626.145 2.577a2.686 2.686 0 0 0-.375.5c0 .123.258.206.526.169a1.429 1.429 0 0 0 1.149-.89 1.63 1.63 0 0 0 .1-.8c-.01-.613.054-.781.266-.7s.287.455.295 1.474a2.829 2.829 0 0 0 .091 1.08c.046.055.1.1.122.1a2.82 2.82 0 0 0 .201-.594Zm3.511-.165a.777.777 0 0 0-.215-.3.539.539 0 0 0-.732-.123c-.115.089-.114.1.057.237.292.243.883.37.883.181Zm5.829-.617c.677-.331.946-.681.861-1.121a2.242 2.242 0 0 1 .064-1.216 1.262 1.262 0 0 0-.003-1.051 2.972 2.972 0 0 0-2.278-.971h-.476l-1.379.7c-.759.386-1.47.732-1.582.77-.307.1-.234.257.2.422.718.271.715.267.607.817l-.044.224.343.1a.694.694 0 0 0 .615 0c.395-.151.608-.052.715.329.073.262.128.317.747.761.662.474.67.478.968.443a2.383 2.383 0 0 0 .634-.207Zm-.715-1.024c-.12-.144.074-.4.3-.4.03 0 .083.055.119.122a.255.255 0 0 1-.426.278Zm-.383-.83a.36.36 0 0 1-.033-.47.325.325 0 0 1 .2-.073.275.275 0 0 1 .139.514c-.165.11-.173.111-.314.029Zm-1.795-.34c-.1-.042-.1-.354.012-.444.2-.164.478.129.376.393-.041.088-.239.115-.396.051Zm2.535-.563a.6.6 0 0 1-.178-.277c0-.111.263-.4.365-.4a.529.529 0 0 1 .216.149c.19.19.207.545.032.639s-.248.083-.442-.111Zm-2.007-.617c-.185-.185-.131-.371.138-.473.313-.119.413-.065.413.222 0 .193-.028.248-.155.306-.217.096-.258.09-.403-.055Zm-13.563 3.018a10.943 10.943 0 0 0 2.32-.869c.489-.255.9-.628.9-.822a3.021 3.021 0 0 0-.335-.715 6.473 6.473 0 0 1-.52-1.172c-.133-.427-.224-.62-.326-.686a17.513 17.513 0 0 0-2.47-.811c-.218-.04-.79-.1-1.273-.123a3.827 3.827 0 0 0-2.164.324 1.789 1.789 0 0 0-1.061 1.227 1.955 1.955 0 0 0 .123 1.877 2.632 2.632 0 0 0 1.242 1.329 7 7 0 0 0 1.612.535 8.038 8.038 0 0 0 1.952-.094Zm-1.138-.73c-.2-.309.1-.8.394-.644a.4.4 0 0 1 .108.662c-.185.174-.38.167-.502-.02Zm-2.431-.621c-.157-.24-.062-.47.2-.5.37-.036.506.271.234.526-.182.179-.304.171-.434-.026Zm4.626-.91a.434.434 0 0 1-.08-.349c.015-.207.049-.265.193-.334s.192-.07.335.036c.228.17.23.332.007.555s-.312.234-.454.092Zm-2.57-.061c-.227-.112-.287-.248-.2-.465.113-.3.383-.265.781.1.161.146.172.242.041.372a.555.555 0 0 1-.621-.008Zm.5-.949a.485.485 0 0 1 .209-.734c.173-.045.487.227.487.421a.542.542 0 0 1-.45.448.328.328 0 0 1-.242-.135Zm-2.584-.311a.426.426 0 0 1 .132-.586.354.354 0 0 1 .375.6c-.211.169-.407.164-.503-.014Zm29.055 3.462a5.863 5.863 0 0 0 1.726-.785c.852-.581 1.568-1.56 1.34-1.834a1.126 1.126 0 0 0-.4-.182.812.812 0 0 1-.666-.846 2.287 2.287 0 0 1 .131-1.155c.11-.217.074-.312-.167-.437a4.332 4.332 0 0 0-1.839 0 26.777 26.777 0 0 0-3.244 1.27 11.351 11.351 0 0 1-3.286 1.074c-1.221.25-1.335.3-1.631.719a1.256 1.256 0 0 0-.165 1.032c.091.169.461.241 1.51.293l.858.042.16-.253c.132-.21.179-.243.27-.195.176.094.265.234.226.356-.028.088.021.142.223.242a8.517 8.517 0 0 0 2.358.718 9.911 9.911 0 0 0 2.6-.059Zm-1.718-.492c-.094-.144-.094-.161.008-.274.154-.17.359-.154.445.035.157.344-.243.555-.449.238Zm-2.361-.7c-.244-.289-.2-.4.195-.532.172-.058.217-.051.319.052a.364.364 0 0 1 0 .534c-.171.18-.324.164-.51-.057Zm4.371-.52c-.092-.141-.092-.163 0-.308.124-.19.272-.173.395.046.083.149.081.174-.023.289-.145.173-.248.162-.372-.027Zm-2.69-.1c-.09-.09-.1-.453-.009-.507.123-.076.353.034.442.212.081.161.079.188-.016.274a.313.313 0 0 1-.414.021Zm-3.05-.513a.588.588 0 0 1-.126-.238c0-.109.352-.393.487-.393a.288.288 0 0 1 .275.35c-.106.438-.405.57-.632.282Zm2.794-.674c-.32-.118-.423-.523-.159-.624a.351.351 0 0 1 .489.21c.12.252.119.273-.011.372a.27.27 0 0 1-.315.043Zm2.157-.6c-.2-.217-.2-.433.007-.484.357-.09.647.274.419.526-.137.156-.244.145-.422-.046Zm11.089 2.287a2.154 2.154 0 0 0 1.91-1.057 2.241 2.241 0 0 0-.71-2.565 2.554 2.554 0 0 0-1.336-.7 8.1 8.1 0 0 0-4.464.402 8.326 8.326 0 0 1-1.959.442 3.033 3.033 0 0 0-1.223.273.681.681 0 0 0-.405.751c.075.334.2.4.941.477a8.528 8.528 0 0 1 3.255 1.091 6.033 6.033 0 0 0 2.5.88 5.122 5.122 0 0 0 1.491.006Zm-1.3-.65a1.177 1.177 0 0 1-.257-.482.377.377 0 0 1 .127-.089c.1-.053.142-.048.2.023a.359.359 0 0 0 .193.112c.083.014.128.077.142.2.02.232-.157.337-.405.236Zm1.7-.334c-.12-.12-.1-.523.035-.593s.5.127.5.286c-.001.253-.373.468-.535.308Zm-2.8-.791a.227.227 0 0 1 .079-.392.312.312 0 0 1 .38.307c-.018.148-.335.207-.459.086Zm-1.885-.325a.3.3 0 0 1-.024-.474q.247-.224.4.079c.124.239.117.351-.025.427s-.191.077-.351-.032Zm3.281-.239-.125-.212.155-.184c.173-.206.3-.228.5-.089a.36.36 0 0 1-.006.564c-.211.192-.378.166-.52-.081Zm-4.637-.275c-.319-.167-.393-.276-.311-.457a.384.384 0 0 1 .225-.188c.317-.08.587.389.379.66-.07.088-.093.087-.293-.017Zm3.255-.88c-.052-.206.059-.46.2-.458a.547.547 0 0 1 .408.343c.047.157.009.186-.318.238-.234.036-.252.029-.29-.129Zm-49.1 3c.2-.286.04-.926-.25-1-.306-.077-.932.282-.853.489a2.333 2.333 0 0 0 .874.644.326.326 0 0 0 .23-.139Zm6.556-.017c.378-.05.961-.16 1.3-.244a8.034 8.034 0 0 1 1.156-.191 2.323 2.323 0 0 0 .624-.1.38.38 0 0 0 .077-.25 4.135 4.135 0 0 1 .089-.6 1.674 1.674 0 0 0 .054-.5.912.912 0 0 0-.378-.215c-.709-.265-1-.5-1.992-1.62a6.921 6.921 0 0 0-.965-.958 9.865 9.865 0 0 0-2.138-.462 1.124 1.124 0 0 0-.986.46c-.088.137-.178.21-.243.2-.092-.018-.1-.108-.084-.84l.019-.82-.364-1.065a17.1 17.1 0 0 0-2.659-5.032 2.041 2.041 0 0 0-2.011-.56 1.942 1.942 0 0 0-.886 1.42 3.3 3.3 0 0 0 .579 2.288 9.366 9.366 0 0 0 2.044 1.9 6.458 6.458 0 0 1 1.787 1.733c.251.462.217.539-.376.831a2.244 2.244 0 0 0-1.154 1.058 2.221 2.221 0 0 0 .4 2.319 5.62 5.62 0 0 0 1.572 1.04 14.585 14.585 0 0 0 4.536.201Zm-1.5-.774c-.228-.326 0-.71.323-.538a.4.4 0 0 1 .018.573c-.147.128-.226.12-.339-.042Zm-2-.464c-.1-.108-.1-.137-.015-.338.1-.233.19-.269.365-.141.078.057.1.143.088.319-.017.207-.042.243-.175.259a.315.315 0 0 1-.264-.105Zm4.454-.157a.449.449 0 0 1 .167-.562c.2-.131.265-.045.267.353 0 .2-.026.293-.1.319-.174.063-.267.032-.335-.116Zm-6.1-.3c-.222-.162.08-.639.312-.492a.349.349 0 0 1 .179.412c-.032.127-.077.162-.21.162a.558.558 0 0 1-.284-.087Zm2.876-.274c-.171-.2-.184-.265-.076-.384.259-.286.565 0 .416.394-.053.128-.23.123-.34-.01Zm1.563-.406a.406.406 0 0 1-.072-.547c.125-.171.359-.1.48.141s.073.382-.136.493c-.102.053-.153.037-.276-.086Zm-4.7-.51c-.207-.132-.19-.626.025-.709.113-.044.353.1.441.266.05.094.031.155-.095.3-.161.196-.242.226-.372.144Zm2.476 0c-.21-.071-.244-.349-.069-.565.111-.137.118-.138.277-.034.306.201.128.713-.209.595Zm1.644-.924a.456.456 0 0 1 .032-.648c.188-.188.3-.128.4.226a.341.341 0 0 1-.2.486c-.082.046-.14.03-.232-.063Zm-3.507-3.7c-.175-.115-.172-.623 0-.623.135 0 .46.3.46.429.003.181-.295.306-.46.197Zm-1.338-.122a.383.383 0 0 1-.146-.44c.062-.115.077-.117.291-.027.3.126.34.173.293.357-.03.121-.077.156-.205.156a.545.545 0 0 1-.233-.043Zm-1.91-1.353a.369.369 0 0 1-.028-.505c.12-.12.207-.121.378 0s.189.481.018.572-.23.074-.368-.064Zm1.367-.39c-.1-.07-.106-.115-.057-.252.089-.251.228-.314.418-.189.26.171.182.527-.116.527a.492.492 0 0 1-.246-.082Zm-1.9-1.448c-.1-.1-.092-.238.022-.4s.276-.172.442.006.165.237.021.367a.4.4 0 0 1-.488.031Zm1.25-.723c-.142-.083-.136-.375.01-.508.239-.216.522.173.328.451-.098.14-.183.154-.34.061Zm27.609 10.087a13.13 13.13 0 0 0 1.221-.545 12.771 12.771 0 0 1 1.169-.526 3.4 3.4 0 0 1 1.8 0l.548.123.262-.286a4 4 0 0 0 .908-2.353 1.238 1.238 0 0 0-.421-.291 4.846 4.846 0 0 1-.6-.351 18 18 0 0 0-1.859-1.2 2.1 2.1 0 0 0-1.214.238 4.927 4.927 0 0 1-2.251.429 3.325 3.325 0 0 1-1.378-.159c-.743-.236-.739-.237-.688.168.039.312.033.335-.085.335-.274 0-.677-.583-.678-.983 0-.119-.421-.4-1.206-.817a7.116 7.116 0 0 1-2.22-1.789c-.854-1-.955-1.1-1.2-1.2a5.644 5.644 0 0 0-1.961-.075c-.206.041-.59.1-.853.122a1.171 1.171 0 0 0-.6.16 11.479 11.479 0 0 0-.836 1.321c-.012.027.027.1.085.167.082.091.188.118.458.118.47 0 .536-.034.669-.343.076-.178.151-.265.228-.265.113 0 .255.224.255.4 0 .276.538.757.755.674.051-.02.091-.185.111-.461.03-.425.111-.614.261-.614.129 0 .167.18.2.93l.03.717.347.267a13.9 13.9 0 0 0 1.3.788 48.407 48.407 0 0 1 4.289 2.723 9.446 9.446 0 0 1 1.814 1.823c.42.587.707.9.828.9a3.3 3.3 0 0 0 .512-.145Zm2.615-1.747c-.227-.251-.252-.376-.082-.409.137-.027.474.336.474.51.001.215-.137.181-.391-.101Zm1.2-.084c-.258-.217-.488-.674-.406-.805.1-.166.2-.161.366.022a1.906 1.906 0 0 1 .47.85c-.051.126-.236.098-.432-.067Zm-5.918-.532q-.3-.414-.039-.464c.131-.025.323.135.447.375.206.403-.129.476-.41.089Zm1.413-.438c-.423-.459-.607-.949-.357-.949s.771.676.771 1.016c-.002.276-.117.257-.416-.067Zm5.217-.108c-.341-.431-.5-.762-.457-.939.06-.239.2-.168.518.266s.463.751.406.9c-.065.163-.218.089-.468-.228Zm-4.219-.248c-.286-.489-.346-.754-.187-.815.206-.079.572.479.574.876.001.297-.197.265-.389-.061Zm1.416-.15a1.058 1.058 0 0 1-.318-.852c.078-.309.437-.056.575.4.125.428-.035.713-.259.452Zm.893-.7c-.106-.151-.128-.473-.033-.473s.3.366.3.5-.155.134-.268-.027Zm-7.771-.324c-.3-.161-.385-.453-.136-.453.183 0 .47.264.443.407s-.118.146-.307.046Zm.949-.292c-.423-.423-.3-.692.169-.367.291.2.445.412.4.541-.074.166-.303.095-.574-.176Zm-3.949-1.99a1.8 1.8 0 0 1-.134-.521c-.031-.3-.024-.328.095-.328.2 0 .33.26.338.654.006.28-.013.35-.1.367-.067.01-.14-.048-.199-.172Zm1.193-.183c-.315-.435-.31-.89.007-.72a1.447 1.447 0 0 1 .4.8c-.035.23-.214.194-.412-.08Zm13.487 6.741a2.275 2.275 0 0 0 .453-.527 3.211 3.211 0 0 1 1.949-1.609 7.364 7.364 0 0 0 .973-.488 6.622 6.622 0 0 0 2.567-3.337c.1-.475.077-.551-.22-.837l-.24-.23.291-.235c.914-.739 1.271-1.186 1.338-1.676a.716.716 0 0 0-.807-.873 1.578 1.578 0 0 0-.96 1.044.368.368 0 0 0 .115.374c.213.253.2.35-.081.461a1.014 1.014 0 0 0-.359.25c-.189.24-.359.2-.448-.094-.1-.321-.25-.382-.857-.337a1.935 1.935 0 0 0-1.447.746 10.319 10.319 0 0 0-2.495 4.89 3.76 3.76 0 0 1-.585 1.252 1.855 1.855 0 0 0-.265.578 1.376 1.376 0 0 0 .592.7c.148.072.231.072.48-.052Zm.515-2a.282.282 0 0 1 .205-.476c.161 0 .287.285.2.446a.283.283 0 0 1-.411.026Zm2.337-1.258a.273.273 0 0 1 .123-.448c.127-.058.17-.048.283.066s.128.145.041.3c-.121.201-.31.236-.453.077Zm-1.832-.918a.271.271 0 0 1 .087-.43c.255-.137.448.139.278.4-.12.176-.225.185-.365.03Zm1.5-.262a.189.189 0 0 1-.122-.224c.015-.132.053-.16.236-.175.263-.022.391.1.335.322-.049.166-.205.193-.449.075Zm1.954-.206a.243.243 0 0 1 .4-.242.165.165 0 0 1 .008.216c-.083.149-.356.166-.411.023Zm-2.383-.835c-.253-.27-.119-.55.246-.515.17.016.2.046.221.19a.387.387 0 0 1-.234.408c-.079.038-.141.02-.236-.085Zm2.775-.2c-.258-.068-.2-.573.075-.688.217-.09.323-.029.418.244a.278.278 0 0 1-.061.331c-.12.144-.208.167-.435.108Zm-1.349-.3c-.209-.209-.082-.47.215-.441.172.016.21.047.225.181a.25.25 0 0 1-.12.259c-.176.118-.205.118-.324-.001Zm-.645-1.063c-.187-.349.147-.723.461-.518a.3.3 0 0 1 .008.51c-.18.164-.386.167-.473.005Zm3.454-1.8c-.083-.022-.106-.093-.106-.329 0-.264.019-.31.155-.372s.174-.051.305.08.143.171.082.347-.232.337-.31.308ZM29.144 63.4a9.363 9.363 0 0 0-1.4-1.493 7.59 7.59 0 0 0-1.107-.834c-.76-.432-.716-.434-.716.039a1.347 1.347 0 0 1-.124.648.783.783 0 0 1-1.42.056c-.171-.428-.42-.478-.6-.121a.908.908 0 0 0 .4 1.2 3.636 3.636 0 0 0 2.023.227 5.241 5.241 0 0 1 2.392.149c.54.204.552.205.552.129Zm-14.385-.86a4.9 4.9 0 0 1 .574-.468l.42-.3c.014-.01-.017-.067-.069-.125a.641.641 0 0 1-.11-.649c.083-.3.266-.449.4-.336.06.05.086.206.086.511a2.043 2.043 0 0 0 .031.47 1.529 1.529 0 0 0 .441-.05 4.625 4.625 0 0 1 .63-.082.566.566 0 0 0 .579-.492c.041-.257.174-.418.267-.324a1.142 1.142 0 0 1 .139.3c.093.269.2.32.767.349l.339.018v-.4c0-.417.044-.546.174-.546s.258.184.549.77l.275.552.584.252a3.323 3.323 0 0 0 .76.252c.156 0 .183-.029.242-.259a2.925 2.925 0 0 1 .784-1.525 2.141 2.141 0 0 1 1.041-.651 2.422 2.422 0 0 0 .385-.132c.107-.057.107-.064 0-.179a2.586 2.586 0 0 0-.446-.319 14.67 14.67 0 0 1-1.819-1.164 3.127 3.127 0 0 0-2.322-.932 1.165 1.165 0 0 1-1.057-.685 3.447 3.447 0 0 0-.392-.572 18.72 18.72 0 0 1-.6-.751 3.923 3.923 0 0 0-1.44-1.28c-.437-.2-.465-.223-.789-.715-.215-.326-.366-.445-.565-.445a3.948 3.948 0 0 0-1.113 1.057 4.743 4.743 0 0 1-.745.719c-.295.233-.788.649-1.1.925a14.853 14.853 0 0 1-1.259.981l-1.126.773a10.171 10.171 0 0 0-.911.74l-.485.447.013.292a3.322 3.322 0 0 0 .256 1.085c.118.118.412-.049.8-.453.416-.435.452-.457.6-.363.076.048.077.1.008.369a.646.646 0 0 0-.028.362 3.118 3.118 0 0 0 .866.245.425.425 0 0 0 .258-.18c.275-.372.467-.306.492.169.018.344.018.344.365.582l.347.238.246-.222c.428-.387.562-.27.4.354-.151.6-.135.7.16.984a4.5 4.5 0 0 0 1.22.815c.502.224.651.223.877-.012Zm-1.109-.637a2.259 2.259 0 0 1 .129-.994c.113-.218.269-.283.391-.161.079.079.083.161.026.553-.069.481-.192.7-.4.7a.171.171 0 0 1-.147-.098Zm7.635-.558a1.5 1.5 0 0 1-.344-.874c.033-.235.254-.22.446.032.445.58.351 1.33-.103.842Zm-6.365-1.491a3.688 3.688 0 0 1-.133-1.387c.082-.154.254-.151.4.006a2.357 2.357 0 0 1 .094 1.327.215.215 0 0 1-.362.054Zm1.6-.045a.848.848 0 0 1-.141-.487c-.034-.468.017-.669.171-.669.209 0 .32.263.328.777.007.431 0 .472-.118.488a.321.321 0 0 1-.241-.109Zm1.606.043a1.442 1.442 0 0 1-.353-.734c-.079-.322-.051-.5.087-.55.164-.063.256.028.44.437.213.473.272.694.22.828-.043.114-.257.124-.395.019Zm1.74-.09a1.189 1.189 0 0 1-.615-.677c-.217-.488-.182-.669.116-.594a2.686 2.686 0 0 1 .882 1.028.338.338 0 0 1-.384.244Zm1.482-.335a3.406 3.406 0 0 1-.782-1.112c0-.164.224-.262.388-.17a4.8 4.8 0 0 1 .937 1.267c-.026.181-.34.189-.544.016Zm-7.992-.1c-.079-.249.2-1.01.352-.96.21.069.042 1.033-.187 1.068a.137.137 0 0 1-.165-.111Zm-1.39-.408c-.143-.143.059-.632.306-.745.174-.079.235.022.179.3-.071.354-.333.594-.485.442Zm-1.379-.65a1.771 1.771 0 0 1 .519-.67c.29-.111.286.124-.009.484-.219.263-.51.37-.51.183Zm5.813-.845a2.8 2.8 0 0 1-.252-1.05c.04-.158.257-.26.351-.165a5.191 5.191 0 0 1 .354 1.205c0 .131-.1.207-.282.207-.049-.003-.126-.092-.171-.201Zm-6.824.049c-.052-.135.131-.39.312-.435.34-.085.449.129.167.328-.257.177-.436.217-.479.104Zm5.623-.141a2.57 2.57 0 0 1-.231-1c0-.228.207-.348.36-.21a1.8 1.8 0 0 1 .249.95c0 .172-.032.254-.118.3-.153.082-.153.082-.26-.043Zm2.484-.027a2.759 2.759 0 0 1-.343-.958c0-.179.115-.27.268-.211a3.163 3.163 0 0 1 .513 1.157c-.033.175-.326.183-.438.009Zm-4.269-.174c-.064-.1.019-.337.29-.822s.423-.568.6-.359c.131.158-.031.723-.288 1.008-.22.235-.51.319-.602.17Zm-.929-.556c-.151-.151-.077-.34.246-.624.36-.316.608-.357.643-.106a1.125 1.125 0 0 1-.561.74c-.222.076-.239.075-.328-.013Zm-1.128-.272a.508.508 0 0 1-.041-.239.911.911 0 0 1 .972-.664c.185.059.15.186-.132.493-.337.363-.671.535-.799.407Zm36.255 4.302a6.193 6.193 0 0 1 2.409-1.493 18.476 18.476 0 0 0 2.518-1.163c.6-.4 1.273-1.233 1.151-1.429a1.455 1.455 0 0 0-.339-.212.766.766 0 0 1-.361-.307 3.462 3.462 0 0 1-.059-.743 2.918 2.918 0 0 0-.048-.663c-.091-.143-.48-.252-1.049-.294a2.645 2.645 0 0 0-1.328.18 5.9 5.9 0 0 0-1.854.808 7.4 7.4 0 0 0-1.288 1.236 9.1 9.1 0 0 0-1.351 3.961c-.039.586-.031.6.377.668.563.091.553.095 1.222-.549Zm-.566-.9c-.08-.032-.1-.25-.039-.411s.488-.13.571.025c.145.274-.201.522-.531.388Zm1.4-1.128a.556.556 0 0 1-.073-.309c0-.234 0-.236.2-.194s.411.187.411.281-.241.295-.353.295a.3.3 0 0 1-.188-.071Zm1.983-.574c-.09-.09-.091-.117-.006-.3s.106-.194.313-.147a.6.6 0 0 1 .3.159c.07.1.06.128-.078.247a.371.371 0 0 1-.532.043Zm-2.8-.514c-.12-.07-.138-.249-.043-.425a.266.266 0 0 1 .262-.118c.361 0 .462.264.184.482-.184.144-.252.154-.407.065Zm4.059-.324c-.112-.082-.113-.094-.013-.3.083-.175.139-.219.276-.219a.276.276 0 0 1 .317.318.207.207 0 0 1-.156.231c-.214.078-.29.074-.429-.027Zm-1.683-.356a.3.3 0 0 1-.025-.307c.058-.159.081-.169.369-.152s.308.029.326.191a.378.378 0 0 1-.674.271Zm1.062-.911c-.155-.075-.161-.1-.078-.317.048-.126.1-.156.269-.156.427 0 .514.137.253.4a.3.3 0 0 1-.449.076Zm-1.4-.12a.356.356 0 0 1 .049-.475c.175-.175.346-.153.455.058.13.251.117.338-.062.419-.207.094-.357.093-.449.001ZM8.55 56.913a64.247 64.247 0 0 1 1.595-1.135 4.68 4.68 0 0 0 .841-.663c.055-.172-.018-.313-.231-.447a2.456 2.456 0 0 1-.5-.625 3.829 3.829 0 0 0-.882-1.048c-.021 0-.063.1-.094.226-.09.36-.36.5-.946.5h-.476l-.236.319c-.13.176-.381.559-.557.851-.309.511-.318.537-.222.669.31.429.3.408.233.635-.057.186-.045.276.085.62.2.528.3.677.468.677a4.3 4.3 0 0 0 .922-.579Zm.025-1.52a1.5 1.5 0 0 1-.061-.929.233.233 0 0 1 .432.026 1.669 1.669 0 0 1 0 .882.215.215 0 0 1-.371.021Zm1.131-.164c-.227-.227-.339-.654-.213-.807.142-.171.343-.108.441.139a1.339 1.339 0 0 1 .136.744c-.054.171-.138.154-.364-.076Zm-2.229 0a1.188 1.188 0 0 1 .274-.831.238.238 0 0 1 .356.057.922.922 0 0 1-.2.732c-.133.133-.42.161-.43.043Zm48.545.537c2.153-.091 3.906-.886 4.467-2.027a1.6 1.6 0 0 0 .2-.964c0-.659-.026-.7-.578-.961a1.933 1.933 0 0 0-1.582-.053 18.592 18.592 0 0 0-2.31 1.958 10.734 10.734 0 0 1-1.1.884 1.528 1.528 0 0 1-1.032.341c-.49.038-.592.065-.684.179a.4.4 0 0 0 .256.678c.195.027 1.303.011 2.363-.034Zm-.226-.73c-.115-.138.069-.436.3-.481a.642.642 0 0 1 .276 0c.111.043.124.391.019.5a.6.6 0 0 1-.595-.018Zm1.165-.108c-.1-.1-.093-.471.008-.509a.416.416 0 0 1 .439.225c.032.1.009.165-.093.247-.159.129-.253.139-.354.038Zm1.753-.553c-.19-.1-.222-.248-.093-.445.085-.129.139-.15.355-.134.237.017.256.032.274.209a.3.3 0 0 1-.145.319c-.192.152-.193.152-.391.052Zm-1.333-.675c-.049-.059-.051-.132-.009-.243a.29.29 0 0 1 .55.094c0 .203-.404.315-.541.15Zm2.336-.633c-.189-.039-.229-.107-.184-.312.057-.26.223-.34.457-.219.364.189.142.618-.273.532Zm-1.394-.214c-.153-.112-.1-.353.1-.465.154-.086.174-.083.319.054.185.174.2.34.038.427a.413.413 0 0 1-.456-.015ZM6.573 54.56c.071-.075.329-.424.573-.776a7.556 7.556 0 0 1 .579-.76.99.99 0 0 0 .306-.54c0-.173-.183-.281-.476-.281a11.577 11.577 0 0 0-2.245.683c-.158.125.289.825.646 1.011.2.1.31.243.31.381 0 .123.1.418.148.418a.62.62 0 0 0 .16-.135Zm2.2-1.81c.194-.9.2-1.155.035-1.4a.936.936 0 0 0-.993-.4 2.366 2.366 0 0 0-1.536.564c-.245.254-.331.449-.2.449.033 0 .324-.068.646-.152a2.053 2.053 0 0 1 1.5-.028 1.1 1.1 0 0 1 .191 1.179c-.107.255-.073.354.112.328.117-.019.154-.102.248-.539Zm47.926-.176c.045-.085.03-.208-.058-.465-.19-.552-.271-.6-.713-.423-.239.1-.543.463-.475.573a1.013 1.013 0 0 0 .355.158 2.876 2.876 0 0 1 .468.181c.214.121.356.113.426-.024ZM1.84 52.057a1.186 1.186 0 0 0 .046-.388c0-.282-.017-.328-.143-.376-.263-.1-.951.136-.951.326 0 .1.428.505.608.573a.387.387 0 0 0 .44-.135Zm3.6.154c.226-.049.267-.165.075-.213s-.229-.159-.105-.439c.1-.229.1-.249-.014-.512a3.25 3.25 0 0 0-.14-.3.8.8 0 0 0-.274.143c-.267.176-.246.273.059.275.127 0 .138.02.1.168a6.017 6.017 0 0 0-.085.38c-.037.2-.054.213-.263.206s-.217.006-.164.1c.117.229.373.287.811.192Zm55.6-1.261c.254-.131.328-.31.191-.462a2.99 2.99 0 0 0-.944-.5c-.255-.061-.368.093-.322.439.053.4.063.42.285.557a.764.764 0 0 0 .782-.034Zm-32.245 4.421a22.7 22.7 0 0 1-8.652-7.578c-.4-.588-1.333-2.2-1.695-2.925a22.361 22.361 0 0 1-1.495-4.69c-.379-1.92-.4-2.648-.354-12.213.036-7.352.052-8.391.132-8.447.063-.044 4.425-.052 14.115-.026 12.352.033 14.035.048 14.115.129s.089.949.073 7.223c-.024 9.667-.095 11.555-.5 13.253a15.4 15.4 0 0 1-1.652 4.136 24.494 24.494 0 0 1-2.41 3.833 34.617 34.617 0 0 1-3.875 3.927 23.881 23.881 0 0 1-3.118 2.328 20.493 20.493 0 0 1-3.147 1.688c-.15.027-.441-.094-1.537-.638Zm2.519-.288a23.181 23.181 0 0 0 3.118-1.924 23.3 23.3 0 0 0 3.52-3.019 22.22 22.22 0 0 0 5.511-8.061 14.018 14.018 0 0 0 1.069-3.779c.11-1.005.185-6.569.168-12.486-.015-5.174-.028-5.865-.111-5.948s-1.574-.1-13.758-.134l-13.658-.039-.07.131c-.052.1-.065 2.529-.052 9.486l.018 9.356.137.73a23.639 23.639 0 0 0 1.049 3.833 21.445 21.445 0 0 0 4.911 7.675 17.236 17.236 0 0 0 2.479 2.1 16.671 16.671 0 0 0 3.987 2.351l.487.155c.202.066.329.02 1.195-.427Zm-1.431-.145a4.506 4.506 0 0 1-.779-.271.979.979 0 0 1-.386-.626 1.332 1.332 0 0 1 .352-.7c.122-.11.122-.111-.052-.61-.193-.554-.182-.751.046-.808.329-.083.5.134.685.862.09.357.211.5.35.418s.168-.282.06-.6c-.144-.423-.075-.456.532-.259a2.389 2.389 0 0 1 .555.228.63.63 0 0 1-.059.316 8.035 8.035 0 0 0-.22.968c-.112.637-.115.733-.037.921.167.399-.059.434-1.047.161Zm.136-.641c.162-.422-.177-.779-.416-.438-.121.172-.12.182.031.374s.329.211.385.06Zm3.079-1.643a3.553 3.553 0 0 0-1.166-.511c-.451 0-.377-.15.336-.68.578-.429.693-.447.747-.112.065.4.138.409.666.049a3.465 3.465 0 0 0 .59-.481c.112-.151.113-.17.018-.353-.127-.246-.09-.352.213-.6.353-.293.527-.17.364.258a14.693 14.693 0 0 0-.336 1.955c-.091.732-.2 1.006-.383 1a8.811 8.811 0 0 1-1.049-.525Zm1.035-.545c.032-.085.076-.222.1-.3.035-.138.021-.149-.18-.149a.3.3 0 1 0-.022.6c.023.002.07-.067.101-.151Zm-8.291.9c-.153-.034-.138-.293.076-1.3a8.442 8.442 0 0 0 .184-1.216.783.783 0 0 1 .063-.39c.092-.057.557.185.756.393.171.179.172.18.069.4-.137.29-.081.431.256.645.364.231.53.23.652 0 .11-.212.209-.223.563-.062.425.193.339.356-.272.514a5.294 5.294 0 0 0-1.634.735.926.926 0 0 1-.712.28Zm1.3-1.02c.045-.028.021-.091-.069-.187-.15-.16-.295-.186-.408-.073-.1.1-.094.336 0 .369a.9.9 0 0 0 .473-.105Zm2.39-.174a14.156 14.156 0 0 1-3.774-2.706 13.34 13.34 0 0 1-2.3-2.533 17.183 17.183 0 0 1-1.505-2.556 15.125 15.125 0 0 1-1.542-4.227l-.162-.821.037-7.149c.042-8.045.057-8.662.226-8.83.11-.11.43-.113 10.046-.106 5.463 0 10.124.025 10.358.046.706.063.66-.326.581 4.919-.107 7.141-.183 10.59-.247 11.241a7.6 7.6 0 0 1-.926 3.024 24.4 24.4 0 0 1-2.016 3.243 35.652 35.652 0 0 1-3.765 4.033 15.146 15.146 0 0 1-2.661 1.89 6.96 6.96 0 0 1-1.755.732 2.5 2.5 0 0 1-.595-.2Zm1.527-.55a15.224 15.224 0 0 0 2.195-1.307l.791-.586a26.829 26.829 0 0 0 2.762-2.679 31.553 31.553 0 0 0 2.817-3.947c1.326-2.378 1.328-2.4 1.444-10.838.086-6.3.082-8.395-.017-8.477s-17.788-.181-18.078-.108l-.172.043.144.153a1.285 1.285 0 0 0 .807.411.886.886 0 0 1 .5.22 2.637 2.637 0 0 0 .448.305c.366.187.426.32.353.784a2.672 2.672 0 0 0-.022.649c.1.651.895 1.185 1.391.932a3.033 3.033 0 0 0 .452-.378c.3-.291.338-.31.639-.312h.32l-.018.456a4.764 4.764 0 0 1-.11.815c-.117.456-.069.512.482.564a1.152 1.152 0 0 1 .459.105 1.988 1.988 0 0 1 .128.462c.146.766.286.888.948.828.436-.04.44-.039.7.175a1.492 1.492 0 0 0 .3.214c.022 0 .273-.1.557-.212a3.8 3.8 0 0 1 .615-.212 1.313 1.313 0 0 1 .379.149 6.783 6.783 0 0 0 2.007.459c.345 0 .364.009.7.324a6.4 6.4 0 0 0 .65.529l.733.491c.462.309.543.426.607.884.077.545.241.683.9.755a1.564 1.564 0 0 1 .763.26 11.42 11.42 0 0 1 1.84 1.5 2.463 2.463 0 0 1 .1.608c.034.494.04.476-.575 1.755a1.212 1.212 0 0 0-.182.852 2.23 2.23 0 0 1-.421 1.658 4.591 4.591 0 0 1-.774.335 2.442 2.442 0 0 0-1.548 1.257 3.373 3.373 0 0 1-1.245 1.2 2.335 2.335 0 0 0-.494.482 7.716 7.716 0 0 1-.766.8l-.5.451-.366-.015c-.2-.008-.355.008-.342.035l.109.22c.084.167.078.177-.327.581-.476.474-.483.484-.58.9a1.746 1.746 0 0 1-.381.695 3.744 3.744 0 0 0-.417.63 5.832 5.832 0 0 0-.216 1.7.953.953 0 0 1-.3.779c-.33.151-1.073-.37-1.323-.926a4.05 4.05 0 0 1-.166-1.46 3.832 3.832 0 0 1 .1-1.643 5.57 5.57 0 0 0 .267-1.764 3.58 3.58 0 0 1 .28-1.4 6.8 6.8 0 0 0 .366-1.7 7.239 7.239 0 0 1 .421-1.917c.148-.4.124-.5-.164-.676a2.7 2.7 0 0 1-.807-.759 4.424 4.424 0 0 1-.208-.649 7.948 7.948 0 0 0-.782-1.94l-.219-.342.066-.556a2.754 2.754 0 0 1 .453-1.464 4.5 4.5 0 0 0 .763-1.673 1.279 1.279 0 0 0-.275-.413.865.865 0 0 0-.738-.392 1.116 1.116 0 0 1-.744-.33 3.687 3.687 0 0 0-1.32-.789c-.634-.182-.8-.271-.958-.509a1.124 1.124 0 0 0-.381-.338c-.205-.1-.271-.1-.639-.031a1.741 1.741 0 0 1-1.26-.186c-.571-.228-.639-.29-1.11-1a4.415 4.415 0 0 1-.661-1.528c-.281-.941-.429-1.312-.554-1.389-.152-.094-.107.186.142.888.352.992.449 1.42.349 1.54-.112.136-.219.061-.521-.361a1 1 0 0 1-.275-.635 1.642 1.642 0 0 0-.335-.915c-.344-.546-.335-.759-.334 7.207 0 7.86-.009 7.625.341 9a21.635 21.635 0 0 0 2.17 4.976 17.291 17.291 0 0 0 2.64 3.21 13.277 13.277 0 0 0 2.37 1.858 10.461 10.461 0 0 0 1.972 1.059 6.991 6.991 0 0 0 .882-.387Zm6.373-18.634a.423.423 0 0 1-.155-.414c.048-.125.225-.115.347.019s.129.262.028.363c-.081.079-.099.081-.22.032Zm-1.371-3.964c-.132-.146-.127-.235.017-.312a.412.412 0 0 1 .535.1c.154.154.156.163.046.243a.521.521 0 0 1-.6-.031Zm-4.416-.087c-.195-.1-.222-.2-.074-.283a.635.635 0 0 1 .587.1c.12.089.12.091 0 .178a.465.465 0 0 1-.515.005Zm2.277.036c-.326-.038-.381-.109-.185-.237.12-.079.154-.141.129-.24-.03-.118.008-.146.327-.242.595-.18 1.108-.034 1.247.356.1.274-.044.348-.7.371a7.608 7.608 0 0 1-.82-.008Zm-2.069-.6-.259-.058c-.171-.036-.18-.21-.013-.253.068-.018.114-.063.1-.1a5.782 5.782 0 0 0-1.686-.652 4.752 4.752 0 0 1-.912-.332c-.238-.238.247-.441 1.063-.447a1.85 1.85 0 0 1 1.425.563 6.916 6.916 0 0 0 .8.544 2.928 2.928 0 0 1 .544.377c.137.146.14.161.041.259-.076.076-.222.107-.544.116a3.606 3.606 0 0 1-.561-.021Zm5.465 22.106c-.066-.074-.253-.32-.416-.545a1.769 1.769 0 0 0-.406-.445c-.137-.044-.391.133-.707.492a1.376 1.376 0 0 1-.283.273c-.062 0-.271-.261-.274-.342a11.045 11.045 0 0 1 1.394-1.39.854.854 0 0 1 .282-.154c.04 0 .145.149.234.331a2.882 2.882 0 0 0 .621.759l.458.428-.131.184a2.155 2.155 0 0 1-.585.507c-.039.015-.123-.027-.189-.103Zm-14.786-.277a7.235 7.235 0 0 1-1.174-1.423.508.508 0 0 1 .317-.455c.18-.093.2-.092.272.011a.777.777 0 0 1 .08.368c0 .261.115.449.273.449.106 0 .457-.294.457-.382a.64.64 0 0 0-.166-.24c-.181-.189-.16-.292.091-.459.124-.082.14-.074.261.132.144.244.209.264.411.122.221-.155.156-.388-.157-.561-.142-.078-.259-.176-.259-.218a.625.625 0 0 1 .35-.341 1.008 1.008 0 0 1 .3.289c.127.159.384.467.571.684.643.747.677.852.277.852a.947.947 0 0 0-.6.228 2.242 2.242 0 0 0-.9.9c-.077.255-.157.264-.404.044Zm16.066-1.288a.96.96 0 0 1-.231-.18 1.551 1.551 0 0 0-.461-.189 1.1 1.1 0 0 1-.515-.259.966.966 0 0 1 .074-.939 5.119 5.119 0 0 1 1.1-1.357 5.29 5.29 0 0 1 1.237.8 1.967 1.967 0 0 0 .539.3c.093.013.152.061.152.122a11.43 11.43 0 0 1-1.36 1.7c-.187.149-.301.149-.537.002Zm.761-.768c.241-.2.291-.37.156-.519a.294.294 0 0 0-.493.051c-.208.281-.226.417-.07.526.18.126.189.124.405-.054Zm-.619-.8.11-.207-.171-.148c-.227-.2-.311-.186-.5.056s-.2.488-.024.612c.118.083.149.082.3-.007a.913.913 0 0 0 .283-.309Zm-17.756.9a2.889 2.889 0 0 1-.406-.5c-.341-.508-.343-.7-.007-.6.156.045.234.011.649-.285.52-.37.806-.622.806-.707 0-.14-.282-.426-.557-.565-.34-.172-.361-.275-.1-.472l.167-.125.219.21a9.412 9.412 0 0 1 .668.8c.59.78.651 1.018.262 1.018a1.194 1.194 0 0 0-.529.237c-.576.394-.809.626-.855.854-.049.259-.123.289-.319.139Zm17.97-2.596-.134-.094.161-.256a6.606 6.606 0 0 1 .856-1.1c.07-.039.127-.018.2.076.144.177.218.164.333-.058s.088-.261-.142-.265-.25-.251-.036-.645.411-.605.56-.605c.1 0 .121.054.144.35s.093.467.494 1.17c.481.843.546 1.05.361 1.148a8.35 8.35 0 0 1-1.166.127 6.91 6.91 0 0 0-1.27.159c-.25.106-.201.107-.361-.007Zm2.054-1c0-.113-.147-.309-.233-.309-.023 0-.079.06-.125.132-.072.116-.069.143.027.213.164.125.331.107.331-.036Zm-22.524-1.107a6.409 6.409 0 0 1-.312-.7c-.362-.916-.431-1.381-.233-1.56a.278.278 0 0 1 .4-.02c.1.072.1.1.032.3a.552.552 0 0 0 .028.5c.1.271.148.308.34.281.213-.03.244-.126.12-.37a1.644 1.644 0 0 1-.12-.271c0-.073.411-.2.538-.172.142.037.166.146.071.324-.087.163-.011.3.162.3.495 0 .527-.436.071-.961-.144-.165-.163-.222-.109-.323s.116-.119.35-.1c.283.018.285.02.386.323a10.27 10.27 0 0 1 .569 1.916c-.055.089-.169.076-.476-.056-.269-.115-.281-.115-.8 0a2.783 2.783 0 0 0-.611.182.518.518 0 0 0-.1.289c-.024.265-.172.325-.306.118Zm24.111-.525a2.463 2.463 0 0 0-1.363-.512h-.357l.038-.237a2.6 2.6 0 0 1 .431-.988c.1-.1.117-.1.307.083.165.16.219.181.319.127a.4.4 0 0 0 .134-.5c-.054-.1-.1-.114-.3-.083-.138.022-.25.011-.273-.027a2.731 2.731 0 0 1 .315-1.15.2.2 0 0 1 .189.089c.13.163.3.248.85.417.4.124.477.131.65.059.272-.114.359-.041.311.258a2.358 2.358 0 0 1-.383.967c-.043.017-.182-.055-.307-.158a.923.923 0 0 0-.3-.188c-.113 0-.263.25-.263.437 0 .14.036.176.228.229a1.846 1.846 0 0 0 .3.064c.167 0 .216.246.106.539-.23.624-.483.851-.632.573Zm-23.409-3.086c-.022-.056.027-.161.12-.259a.7.7 0 0 0 .233-.655c-.11-.41-.421-.328-.738.2a2.13 2.13 0 0 1-.353.451.705.705 0 0 1-.748.015c-.3-.175-.366-.411-.347-1.186l.017-.687.241-.02c.329-.027.642.039.642.135a.377.377 0 0 1-.128.195.934.934 0 0 0-.3.574c0 .229.191.109.486-.306.247-.347.321-.409.612-.506.434-.145.679-.1.883.169a1.236 1.236 0 0 1 .212 1.09 1.41 1.41 0 0 0-.008.6c.085.223-.017.292-.433.292-.265-.008-.364-.031-.391-.102Zm22.593-1.893a9.4 9.4 0 0 1 0-1.688c.047-.122.138-.122.273 0s.321.066.413-.137a1.6 1.6 0 0 0-.118-1.087.168.168 0 0 0-.241-.028c-.251.134-.3.046-.3-.508 0-.369.024-.532.087-.584.1-.08.168.011.239.31.025.106.181.266.45.465a4.962 4.962 0 0 0 1.332.8.511.511 0 0 1 .414.343c.061.209-.219.474-.9.85-1.053.583-1.255.733-1.387 1.032-.123.265-.179.315-.262.232Zm1.443-2.169c.054-.088.044-.128-.051-.2-.183-.136-.277-.107-.277.085a.42.42 0 0 0 .043.215c.068.071.212.019.285-.1Zm-23.57 1.57c-.138-.147-.168-.152-.946-.152a3.15 3.15 0 0 0-1.02.091c-.119.05-.23.07-.245.045a12.46 12.46 0 0 1-.045-1.6c.007-.633.054-.682.714-.746.544-.053.6-.006.659.554s.15.688.453.688a1.4 1.4 0 0 0 .452-.091c.279-.116.3-.08.332.545.023.465-.045.824-.157.824a.544.544 0 0 1-.197-.157Zm-1.29-1.2c.18-.18.03-.5-.271-.574a.339.339 0 0 0-.295.547.524.524 0 0 0 .566.029Zm-1-1.661a3.142 3.142 0 0 1 .048-1.038.389.389 0 0 1 .241.027 9.9 9.9 0 0 0 2.1.049c.27-.069.321.054.272.658l-.04.487-.183-.021a16.214 16.214 0 0 0-2.081.008l-.316.047Zm26.714-.712a12.009 12.009 0 0 1-.9-.823 4.674 4.674 0 0 0-.852-.73c-.055.019-.074.189-.066.614l.011.587h-.176a.262.262 0 0 1-.233-.106 10.367 10.367 0 0 1-.078-1.4c-.018-1.1-.008-1.3.07-1.353a.418.418 0 0 1 .123-.059c.017 0 .4.343.847.763.9.844 1.021.932 1.074.793a2.671 2.671 0 0 0-.1-1.058c-.074-.174-.074-.208.005-.258a.421.421 0 0 1 .451.022c.1.074.111.2.118 1.488.006 1.177-.007 1.422-.084 1.5a.148.148 0 0 1-.205.022Zm-26.683-.913a9.8 9.8 0 0 1 .069-2.504.744.744 0 0 1 1.264.014c.076.1.174.188.217.188a1.886 1.886 0 0 0 .423-.187 1.1 1.1 0 0 1 .513-.167c.157.018.169.041.186.337a1.127 1.127 0 0 1-.041.428 1.877 1.877 0 0 1-.5.351c-.495.271-.665.461-.544.607a.768.768 0 0 0 .73 0c.13-.157.285-.11.327.1a1.963 1.963 0 0 1-.049 1c-.084.114-.093.114-.268.012a4.941 4.941 0 0 0-2.045-.013c-.171.135-.202.117-.277-.164Zm1.1-.931a.876.876 0 0 0-.094-.763.345.345 0 0 0-.515 0c-.163.163-.173.694-.015.786a.68.68 0 0 0 .628-.021Zm23.317-2.5a3.229 3.229 0 0 1 .1-.895c.051-.051.116-.041.254.04.294.174.362.067.362-.573 0-.407-.023-.559-.1-.632s-.11-.086-.224-.006c-.2.139-.289.017-.288-.386s.049-.616.13-.616c.031 0 .113.1.184.217a4.707 4.707 0 0 0 1.565 1.1c.3.055.555.243.555.415s-.317.472-1.135 1.077c-.33.244-.771.588-.981.765a3.159 3.159 0 0 1-.419.322 4.5 4.5 0 0 1 0-.825Zm1.494-1.193c.092-.092-.073-.293-.24-.293-.084 0-.112.046-.112.183s.025.183.14.183a.345.345 0 0 0 .215-.07Zm-25.891 1.52a1.376 1.376 0 0 1-.073-.6c0-.647.069-.745.386-.549.184.114.3.128 1.057.128.779 0 .86-.01.963-.124a.317.317 0 0 1 .238-.106c.113.016.127.066.142.536.022.658-.054.8-.362.681a5.251 5.251 0 0 0-1-.115c-.746-.034-.817-.027-1.023.095-.264.154-.237.149-.328.054Zm-.037-1.746c-.1-.106-.1-.213-.039-1.321a8.111 8.111 0 0 1 .123-1.264.833.833 0 0 1 .54-.007c.019.019 0 .122-.046.23-.14.341-.15.508-.031.554a5.254 5.254 0 0 0 .751.076c.723.039.942-.014 1.051-.253.049-.107.111-.15.2-.138.118.017.127.063.144.718.026 1.037-.025 1.138-.393.781-.192-.186-.22-.193-.835-.221-.822-.037-.973 0-.933.218a2.175 2.175 0 0 0 .109.357c.065.159.065.21 0 .289a.535.535 0 0 1-.64-.015Zm24.585-2.42a.694.694 0 0 1-.04-.289 1.723 1.723 0 0 1 .479-.973c.2-.176.157-.227-.16-.207l-.289.018-.016-.335a4.791 4.791 0 0 1 .031-.7c.054-.42.172-.5.33-.219.081.143.157.187.38.221a2.588 2.588 0 0 0 1.177-.08.959.959 0 0 1 .134-.208c.094-.116.124-.124.208-.054s.1.234.1 1.063c0 1.092-.052 1.374-.284 1.556-.279.219-.6.155-.972-.193-.241-.228-.368-.2-.667.169-.213.263-.322.324-.411.235Zm1.818-.959a.555.555 0 0 0 .077-.316c-.015-.132-.062-.179-.218-.219-.224-.058-.441.026-.441.17a1.142 1.142 0 0 0 .088.3c.111.267.347.297.494.068Zm-26.382.325a1.706 1.706 0 0 1 .061-1.024.361.361 0 0 1 .252.008c.141.049.236.026.557-.133a4.176 4.176 0 0 0 .536-.31l.15-.118-.3-.273a3.082 3.082 0 0 0-.545-.392c-.222-.11-.254-.112-.386-.025a.323.323 0 0 1-.222.065c-.174-.067-.161-1.063.014-1.121.047-.016.117.073.176.223.1.256.5.58 1.484 1.212.914.585.9.7-.188 1.259-.436.225-.908.487-1.05.583-.312.209-.446.221-.539.046Zm7-2.3a1.189 1.189 0 0 1-.585-.938 1.215 1.215 0 0 1 .358-1.105 1.068 1.068 0 0 1 .906-.332 1.149 1.149 0 0 1 1.273 1.2 1.276 1.276 0 0 1-.436 1.031 1.084 1.084 0 0 1-.9.323.9.9 0 0 1-.62-.179Zm.925-.375c.118-.118.127-.178.1-.687a2.7 2.7 0 0 0-.1-.692.3.3 0 0 0-.492-.017 3.961 3.961 0 0 0 0 1.369c.067.197.302.209.488.026Zm-4.389.439c-.16-.045-.165-.073-.126-.645.009-.134.014-.458.011-.721-.006-.454-.015-.486-.2-.657s-.186-.186-.09-.282.259-.107.985-.125c1.263-.033 1.678.1 1.766.571.078.414-.235.7-.856.791-.475.068-.534.117-.5.413a4.081 4.081 0 0 0 .073.42c.037.143.02.175-.12.228a2.223 2.223 0 0 1-.944.007Zm1.491-1.746c0-.128-.265-.247-.419-.188s-.125.339.039.4a.279.279 0 0 0 .377-.212Zm4.676 1.71a.242.242 0 0 1 .068-.211c.087-.1.1-.242.1-.863 0-.685-.011-.756-.127-.851-.159-.129-.163-.273-.01-.355a5.259 5.259 0 0 1 1.052-.063c.848 0 .959.013 1.206.137.474.239.475.735 0 1.064l-.241.168.4.406c.438.445.462.567.122.63a1.306 1.306 0 0 1-1.039-.368 2.473 2.473 0 0 0-.373-.273.679.679 0 0 0-.019.319l.02.319-.564.018c-.463.015-.563.002-.598-.077Zm1.74-1.608a.153.153 0 0 0-.036-.216c-.132-.132-.592-.1-.619.037-.053.265.522.422.652.178Zm4.687 1.636c-.077-.052-.059-.089.107-.232a6.743 6.743 0 0 0 1.044-1.624.488.488 0 0 0-.091-.24c-.137-.181-.114-.2.23-.246a.961.961 0 0 1 1.069.4c.147.183.39.478.541.655.263.31.279.319.39.218a2.144 2.144 0 0 0 .54-.919c0-.241.1-.321.406-.321.286 0 .385.1.385.4a5.314 5.314 0 0 0 .994 1.533c.35.365.28.411-.634.411-.793 0-.895-.041-.771-.312.053-.116.036-.184-.1-.386-.092-.139-.211-.245-.274-.245a1.585 1.585 0 0 0-.49.426c-.49.552-.554.552-1.024.007-.2-.231-.441-.532-.538-.669s-.217-.243-.267-.234a2.852 2.852 0 0 0-.67.961.27.27 0 0 0 .091.179c.119.1.116.221 0 .267a2.306 2.306 0 0 1-.941-.03Zm6.651-.036a.289.289 0 0 1 .038-.221 3.244 3.244 0 0 0 .04-1.569 1.04 1.04 0 0 1-.073-.4c.042-.109.516-.172.92-.121.371.046.41.117.243.437a3.319 3.319 0 0 0 .011 1.644c.1.149.1.162-.012.241a1.356 1.356 0 0 1-.622.084c-.416.004-.517-.015-.548-.095Zm-.58 29.559c-.27-.031-.452-.309-.5-.766a1.65 1.65 0 0 1 .214-1.267c.27-.27.333-.227.48.333.221.84.2.807.435.8a1.379 1.379 0 0 0 .45-.122l.243-.116v-.456c0-.251-.025-.706-.053-1.012-.049-.526-.045-.558.069-.595a.947.947 0 0 1 .639.016 11.888 11.888 0 0 1 .286 2.274c0 .369-.012.419-.148.508a5.446 5.446 0 0 1-2.117.402Zm3.755-.368c-.377-.233-.506-.509-.7-1.494-.179-.926-.172-1.042.069-1.126.256-.089.291-.048.537.651a1.676 1.676 0 0 0 .377.715c.22.185.239.185.458 0a1.2 1.2 0 0 0 .32-.923c0-.468.047-.571.251-.571.233 0 .267.091.405 1.079.131.933.1 1.135-.251 1.454a1.509 1.509 0 0 1-1.469.214Zm2.918-.073c-.39-.114-.648-.564-.883-1.544-.149-.622-.151-.9-.007-1.028.121-.109.347-.135.4-.045a4.341 4.341 0 0 1 .13.563c.136.716.295 1.061.527 1.142.355.124.862.031.925-.169a5.575 5.575 0 0 0-.089-.923c-.15-1.017-.151-.962.028-1.044.338-.154.529.189.7 1.266a2.468 2.468 0 0 1-.025 1.374c-.125.19-.457.325-1.009.411-.449.068-.45.068-.699-.004Zm-26.23-.056a1.66 1.66 0 0 1-.862-.457 3.4 3.4 0 0 1-.27-1.541c-.014-.532-.006-.575.129-.684a.55.55 0 0 1 .289-.117c.274 0 .358.169.441.885a3.434 3.434 0 0 0 .129.719c.1.1.17-.023.211-.371.055-.469.087-.564.19-.564.067 0 .087.092.087.39 0 .663.114.764.315.281.135-.326.252-.4.538-.336.237.052.283.24.191.776s-.206.8-.4.931a1.552 1.552 0 0 1-.991.087Zm-3.279-.333a1.874 1.874 0 0 1-.466-.179c-.338-.221-.5-.919-.409-1.775.028-.265.052-.543.054-.618a.466.466 0 0 1 .131-.264.315.315 0 0 1 .35-.087.749.749 0 0 1 .282.1 3.419 3.419 0 0 1 .041.9c-.021.911-.012.939.323 1 .429.078.576-.13.7-.99.1-.662.188-.817.447-.766.359.072.375.125.375 1.189 0 1.107-.033 1.2-.518 1.447a2.009 2.009 0 0 1-1.313.042Zm-2.7-.346c-.688-.106-1.109-.382-1.222-.8a8.9 8.9 0 0 1 .128-2.078c.08-.365.283-.471.64-.335l.163.062-.044.9c-.048.993-.025 1.1.272 1.254.44.227.573.077.76-.859.079-.4.163-.769.185-.826.058-.149.241-.189.487-.108l.212.07v.467a8.138 8.138 0 0 1-.185 1.856.676.676 0 0 1-.263.267 2.331 2.331 0 0 1-1.14.127Zm-10.951-.103a1.611 1.611 0 0 1-.074-.91 1.093 1.093 0 0 1 .335-.49c.27-.249.419-.308 1.122-.442a1.381 1.381 0 0 0 .556-.217c.285-.239.548-.159.548.167 0 .236-.289.518-.613.6-.6.147-.571.124-.6.522-.026.31-.052.374-.183.439a.905.905 0 0 1-.338.077.365.365 0 0 0-.321.183c-.155.203-.345.237-.432.071Zm37.145-.122a4.79 4.79 0 0 1-.069-.453c-.047-.411.033-.613.231-.585.115.016.142.079.205.475.108.683.111.669-.129.669-.146.005-.217-.026-.237-.101Zm6.107-.608a4.23 4.23 0 0 1-.1-.595c-.029-.291-.017-.383.059-.446.259-.215.419.053.5.828l.044.441h-.216c-.203.002-.227-.015-.287-.224Zm-2.581.073c-.23-.23-.288-1.012-.077-1.052s.329.154.374.574c.053.51-.07.71-.297.482Zm-26.688-.215a1.533 1.533 0 0 1 .048-.917c.136-.136.259-.008.255.266-.008.634-.151.94-.303.655Zm-2.94-.375a2.323 2.323 0 0 1 .016-.836.243.243 0 0 1 .144-.171c.136-.026.192.214.148.637-.047.456-.23.674-.308.374Zm42.349-.253a8.64 8.64 0 0 1 .439-2.061 29.833 29.833 0 0 0 .823-5c.084-.9.249-2.486.368-3.516.325-2.826.392-3.666.521-6.615.065-1.489.119-2.824.119-2.966s.024-.259.052-.259a1.066 1.066 0 0 1 .275.2l.224.2-.062 2.817a43.844 43.844 0 0 1-.693 7.953 26.935 26.935 0 0 0-.379 2.905c-.033.487-.025.593.044.593a.25.25 0 0 0 .162-.123c.074-.118.8-3.055 1.052-4.257a30.745 30.745 0 0 0 .546-3.742c.033-.535.1-2.239.144-3.785l.084-2.812.173-.153c.235-.207.381-.248.491-.138.08.08.083.432.024 2.942-.037 1.568-.107 3.275-.154 3.794-.116 1.251-.473 3.54-.764 4.9a35.522 35.522 0 0 1-2.818 8.335c-.474.86-.591 1-.671.788Zm-52.685-.81a2.894 2.894 0 0 1-.278-.564c-.17-.43-1.047-3.435-1.589-5.445a37.81 37.81 0 0 1-1.19-11.268c.043-2.2.047-2.266.164-2.266a.665.665 0 0 1 .32.2l.2.2.037 1.094c.02.6.053 2.189.072 3.527a31.573 31.573 0 0 0 .69 7.161c.1.478.25 1.24.331 1.691.161.9.307 1.34.412 1.235.045-.045.019-.315-.089-.908a51.361 51.361 0 0 1-.374-6.747l-.16-4.813c-.039-1.175-.056-2.178-.036-2.23.044-.114.461-.263.532-.189a8.932 8.932 0 0 1 .119 1.239l.217 3.651c.081 1.351.19 3.354.241 4.442s.106 2.073.123 2.19c.064.439.522 7.326.5 7.592-.016.307-.095.375-.242.212Zm38.771-.5c-.073-.046-.091-.2-.089-.775 0-.622.02-.751.138-.975a.886.886 0 0 1 .75-.514 1 1 0 0 1 1.31.732 2.714 2.714 0 0 1 .033 1.328c-.071.129-.295.244-.356.182a5.152 5.152 0 0 1-.09-.72c-.069-.8-.156-.983-.486-1.012a.749.749 0 0 0-.7.477 3.441 3.441 0 0 0-.076.774v.563h-.167a.593.593 0 0 1-.266-.058Zm.885-.077a6.93 6.93 0 0 1-.051-.671c-.026-.577-.022-.6.125-.715.335-.264.44-.1.44.693a3.994 3.994 0 0 1-.037.673c-.043.118-.441.134-.476.021Zm1.6-.061a2.3 2.3 0 0 1-.078-.776c0-.724.086-.954.453-1.2a1.19 1.19 0 0 1 1.122-.009 2.5 2.5 0 0 1 .615 1.515c-.045.142-.267.279-.329.2a3.25 3.25 0 0 1-.177-.477c-.147-.463-.2-.543-.46-.747a.451.451 0 0 0-.679.05c-.176.184-.178.192-.172.882 0 .635 0 .7-.105.7a.264.264 0 0 1-.192-.137Zm.787-.024a3.689 3.689 0 0 1-.1-.527c-.062-.414-.059-.494.026-.624a.232.232 0 0 1 .422-.012 2.5 2.5 0 0 1 .171 1.092c-.083.079-.484.134-.521.073Zm4.884-.023a2.8 2.8 0 0 1-1.484-1.235 3.459 3.459 0 0 1-.157-1.825l.074-.591-.159-.227c-.167-.24-1.679-1.959-2.313-2.631-.453-.48-.474-.441-.286.539.156.814.159 1.021.02 1.095a6.525 6.525 0 0 1-1.484.192c-.487 0-.552-.1-.562-.9-.007-.571 0-.593.13-.612.1-.014.166.031.243.167.308.543.751.045.867-.976a5.758 5.758 0 0 1 .092-.601c.051-.16.189-.143.308.037.1.151.107.152.993.152h.893l.88.6c.484.328 1.107.755 1.385.949.567.4.52.391 1.389.149a1.9 1.9 0 0 1 1.01-.074 2.1 2.1 0 0 1 1.3.55c.221.221.266.442.115.567-.073.061-.167.057-.474-.021-.377-.095-.651-.081-.651.031a2.935 2.935 0 0 0 .366.492c.424.5.523.774.41 1.114a.516.516 0 0 1-.142.252 1.624 1.624 0 0 1-.481-.286 1.951 1.951 0 0 0-1.395-.466.728.728 0 0 0-.563.3 1.463 1.463 0 0 0-.369 1.291 3.174 3.174 0 0 0 .289 1.14c.2.51.244.669.188.736a.394.394 0 0 1-.434.094Zm-32.09-.4a.231.231 0 0 1-.016-.356c.1-.137.274-.107.389.067.079.119.075.145-.038.259-.158.154-.211.159-.337.033Zm-8.264-.243c-.1-.1-.037-.373.14-.635a1.8 1.8 0 0 0 .369-1.917c-.361-.81-1.136-1.127-2.453-1-.8.076-.884.041-.812-.344a1.466 1.466 0 0 1 1-.9c.412-.156.439-.177.3-.228a2.154 2.154 0 0 0-.623-.016c-.332.028-.5.018-.563-.033-.226-.188.008-.6.506-.892a1.445 1.445 0 0 1 .783-.189 2.294 2.294 0 0 1 1.588.422c.3.184.532.287.578.259s.478-.383.969-.8a9.135 9.135 0 0 1 1.114-.843 1.341 1.341 0 0 1 .659-.057 4.229 4.229 0 0 0 .93-.047c.739-.124.825-.034.345.358a17.381 17.381 0 0 0-2.814 2.732 7 7 0 0 0 .127.733 3.757 3.757 0 0 1-.088 2.205 2.25 2.25 0 0 1-1.678 1.21.913.913 0 0 1-.379-.015Zm6.393-.118a.2.2 0 0 1 .044-.276.25.25 0 0 1 .443.082c.1.216.012.347-.241.347a.23.23 0 0 1-.248-.15Zm-1.314-.065a.24.24 0 0 1-.024-.413.237.237 0 0 1 .4.035c.122.174.12.205-.027.352s-.177.147-.351.03Zm-1.772-.233a.476.476 0 0 1-.056-.292c.018-.185.037-.2.226-.2.26 0 .361.138.277.377a.27.27 0 0 1-.45.119Zm3.4-.489c-.184-.042-.8-.177-1.369-.3-1.487-.323-1.43-.3-1.43-.614 0-.346.1-.424.471-.371a18.409 18.409 0 0 1 3.164.8.309.309 0 0 1 .041.476c-.113.117-.409.12-.878.013Zm26.283-.982a1.648 1.648 0 0 1-.059-.458c0-.258.02-.309.138-.354.076-.029.826-.073 1.667-.1 1.5-.044 1.53-.043 1.6.08.086.16.087.661 0 .714-.059.037-2.726.268-3.116.27a.2.2 0 0 1-.232-.148Zm-26.313-.221c-.134-.034-.709-.169-1.278-.3s-1.151-.268-1.293-.306l-.259-.068v-.58c0-.74.05-.828.438-.77s.485.146.52.512c.042.435.143.5.351.227.091-.119.209-.215.264-.215a1.543 1.543 0 0 1 .758.4c.123.143.157.154.277.09a.521.521 0 0 1 .618.164c.1.128.122.23.107.528-.02.411-.058.436-.505.322Zm38.623-1a5.117 5.117 0 0 1 .037-.9 15.481 15.481 0 0 0 .1-3.2 16.912 16.912 0 0 1 .094-3.255c.093-1.238.212-2.949.265-3.8s.136-1.935.184-2.4.106-1.033.127-1.254c.048-.5.113-.621.24-.454.073.1.09.367.089 1.46 0 1.553-.09 4.119-.179 5.175-.179 2.121-.306 4.314-.253 4.366.1.1.234-.192.395-.838a15.111 15.111 0 0 0 .434-3.772c.122-2.824.269-5.7.31-6.094.029-.277.052-.319.194-.354.294-.074.318.041.317 1.486a69.763 69.763 0 0 1-.37 7.122c-.125.87-.6 3.38-.759 3.985a21.354 21.354 0 0 1-.948 2.6c-.126.248-.217.29-.279.129Zm-11.859-.171c-.092-.141-.092-.163 0-.3a.293.293 0 0 1 .524 0 .302.302 0 0 1-.524.3Zm1.192-.03c-.146-.146-.152-.234-.027-.412a.356.356 0 0 1 .535-.024.4.4 0 0 1 .028.485.438.438 0 0 1-.536-.049Zm1.22-.058a.4.4 0 0 1-.027-.542.2.2 0 0 1 .258-.1c.239.06.313.146.313.365s-.067.294-.286.361a.24.24 0 0 1-.258-.079Zm-40.039-.657a17.058 17.058 0 0 1-1.7-4.578c-.129-.981-.366-3.806-.43-5.141-.073-1.5-.111-4.866-.055-4.923.02-.02.119-.007.221.028.215.075.2-.037.352 2.431.049.786.1 1.567.121 1.734s.06.865.094 1.551a29.718 29.718 0 0 0 .518 4.442c.333 1.839.315 1.764.43 1.764s.093-.343-.068-1.612c-.169-1.334-.215-1.861-.346-3.955a53.351 53.351 0 0 1-.088-5.892c.05-.362.239-.656.35-.545a11.782 11.782 0 0 1 .265 2.573c.3 4.962.411 6.878.548 9.309.084 1.489.153 2.769.153 2.844.001.195-.201.178-.366-.03Zm9.944-.552a2.744 2.744 0 0 1-.408-.372c-.155-.185-.165-.232-.165-.8 0-.692.015-.706.489-.467.253.128.279.163.38.532a4.256 4.256 0 0 1 .122.819c.015.508-.052.554-.419.288Zm36.239-1.73a5.058 5.058 0 0 1 .333-1.171 21.6 21.6 0 0 0 .734-2.422 5.875 5.875 0 0 0 .087-.987 13.974 13.974 0 0 1 .121-1.471c.138-1.028.792-6.315.792-6.406s.224-.071.33.035a.617.617 0 0 1 .1.405c0 .377-.693 6.613-.82 7.378-.185 1.116-.076 1.239.292.33a11.665 11.665 0 0 0 .771-4.011c.126-1.882.311-3.927.367-4.061.041-.1.108-.137.241-.137h.184v.412c0 .406-.205 3.682-.279 4.455a26.374 26.374 0 0 1-.542 2.86 15.017 15.017 0 0 1-.868 2.372 18.545 18.545 0 0 1-1.433 2.263c-.173.224-.414.313-.411.156ZM8.265 39.502a4.3 4.3 0 0 1-.635-.963 27.61 27.61 0 0 1-.843-3.556 24.948 24.948 0 0 1-.4-3.8l-.089-1.856a5.778 5.778 0 0 1 .016-.821c.039-.289.051-.305.238-.323.159-.015.209.009.255.122a12.846 12.846 0 0 1 .125 1.478 38.838 38.838 0 0 0 .554 6.115c.206 1.19.338 1.507.277.669-.164-2.276-.464-7.4-.464-7.926v-.655l.2-.121c.251-.153.28-.151.318.016.017.075.1 1.478.186 3.118s.207 3.474.273 4.076c.143 1.322.222 2.357.277 3.635.045 1.057.02 1.126-.288.792Zm38.554.085c-.9-.3-1.275-.773-1.517-1.944-.267-1.294.009-2.787 1-5.4a28.663 28.663 0 0 0 1.592-4.95 10.092 10.092 0 0 0 .033-3.255 5.543 5.543 0 0 0-1.687-3.287c-.464-.3-.5-.36-.508-.895l-.007-.473.184-.018c.38-.037 1.506.878 2.006 1.63.862 1.3 1.139 2.51 1.147 5.02a9.8 9.8 0 0 1-.135 1.977 16.116 16.116 0 0 1-.966 3.559 25.948 25.948 0 0 0-1.108 3.563 7.146 7.146 0 0 0-.07 2.2c.081.206.166.209.5.016a.893.893 0 0 1 1.243.244.973.973 0 0 1 .192.624 1.037 1.037 0 0 1-.148.743 1.17 1.17 0 0 1-1.1.713 2.307 2.307 0 0 1-.652-.067Zm-33.2-.551a1.351 1.351 0 0 1-1.087-1.283 1.234 1.234 0 0 1 .861-1.2.955.955 0 0 1 .66.04c.444.134.54.1.659-.249a3.135 3.135 0 0 0 .053-1 11.594 11.594 0 0 0-.4-2.41 25.245 25.245 0 0 1-.839-6.108 11.685 11.685 0 0 1 .065-2.16 8.359 8.359 0 0 1 1.074-3.437c.457-.707 1.083-1.278 1.4-1.278.147 0 .176.03.211.216.08.426 0 .622-.45 1.085a4.841 4.841 0 0 0-1.332 2.623 16.057 16.057 0 0 0-.025 3.468 21.467 21.467 0 0 0 1.045 4.75c.843 2.6 1.04 3.724.854 4.86a3.481 3.481 0 0 1-.69 1.426 2.7 2.7 0 0 1-1.168.648 1.321 1.321 0 0 1-.896.01Zm36.392-.265c-.018-.281.052-.484.5-1.445a16.342 16.342 0 0 0 1.361-4.807c.189-1.217.321-2.441.375-3.476.046-.875.082-1 .253-.9.1.062.108.188.1 1.491a12.549 12.549 0 0 1-.522 3.924 8.529 8.529 0 0 0-.27 1.392c.04.1.047.1.161 0a1.491 1.491 0 0 0 .247-.449 28.643 28.643 0 0 0 .816-3.2c.087-.468.185-.977.219-1.13s.114-.685.177-1.181a3.032 3.032 0 0 1 .21-1c.2-.2.23-.006.2 1.1a16.266 16.266 0 0 1-.625 3.872 13.175 13.175 0 0 1-.881 2.477 11.212 11.212 0 0 1-2 3.3c-.148.166-.317.182-.326.033Zm-39.705-1.45a9.353 9.353 0 0 1-1.053-2.087 11.673 11.673 0 0 1-.64-4.023 145.52 145.52 0 0 0-.15-2.728 7.145 7.145 0 0 1-.033-.92c.056-.091.346.014.392.142.026.071.094.718.151 1.437a31.6 31.6 0 0 0 .5 4.137 11.8 11.8 0 0 0 .7 2.495c.07 0 .067-.045-.069-.845-.2-1.17-.417-2.936-.549-4.418a40.602 40.602 0 0 0-.184-1.764c-.116-.709-.045-1.308.155-1.308.222 0 .281.274.549 2.555.12 1.021.326 2.677.458 3.681a20.373 20.373 0 0 1 .255 4.223c-.056.137-.094.095-.487-.576Zm2.184-1.515a6.519 6.519 0 0 1-.974-1.552 7.916 7.916 0 0 1-.706-2.038c-.186-.816-.683-4.649-.623-4.8.036-.093.344-.136.344-.048 0 .344.7 4.667.813 5.035.3.981.357 1.076.486.87.047-.074.044-.195-.008-.426-.195-.863-.566-3.3-.65-4.265-.127-1.461-.128-1.442.056-1.442s.213.1.4 1.308c.455 2.98.941 5.777 1.128 6.5a4.926 4.926 0 0 1 .186.928c-.057.128-.258.098-.457-.069Zm36.034.074a2.274 2.274 0 0 1 .192-.624 19.994 19.994 0 0 0 1.574-5.992c.133-1.163.146-1.217.286-1.217.2 0 .354.117.355.261 0 .174-.343 2.15-.459 2.643-.049.208-.17.783-.268 1.278a13.166 13.166 0 0 1-.338 1.355c-.248.709-.268.787-.213.821s.373-.335.627-.73a11.032 11.032 0 0 0 .927-2.745 14.948 14.948 0 0 0 .149-1.631 9.479 9.479 0 0 1 .107-1.26c.084-.084.307.015.344.151a12.215 12.215 0 0 1-.182 3.007 14.009 14.009 0 0 1-.741 2.387 6.273 6.273 0 0 1-1.68 2.2c-.258.184-.631.237-.685.097Zm.126-2.82c-.115-.115-.121-.023.063-1a20.754 20.754 0 0 0 .24-2.071c.085-1.25.116-1.458.221-1.458.192 0 .2.616.018 2.066-.094.76-.04 1 .117.51a14.424 14.424 0 0 0 .316-2.192c.043-.536.145-.774.278-.644a7.155 7.155 0 0 1-.165 2.69c-.087.3-.571 1.558-.756 1.962-.1.211-.217.258-.337.138Zm-35.731-.586a11.077 11.077 0 0 1-.922-3.748c-.133-.915-.228-1.7-.211-1.745.069-.18.447-.139.448.049 0 .041.082.745.182 1.565.183 1.5.259 1.912.368 1.979.082.051.073-.23-.032-1.056-.05-.391-.1-1.175-.106-1.744l-.015-1.034.171-.02c.325-.037.346.031.349 1.137 0 .556.028 1.368.059 1.8s.075 1.359.1 2.053c.041 1.497.003 1.572-.396.765Zm32.928-.365a11.235 11.235 0 0 1 .041-1.839 1.059 1.059 0 0 1 .71.224 7.936 7.936 0 0 1-.631 1.626c-.076.073-.092.073-.124-.01Zm-30.039-.122a2.954 2.954 0 0 1-.35-1.6 1.919 1.919 0 0 1 .4-.246c.429-.217.517-.159.517.341a5.591 5.591 0 0 1-.2 1.456c-.107.206-.256.225-.371.05Zm30.076-2.321c-.062-.075-.069-.175-.028-.417.05-.3.072-.328.325-.455.3-.149.666-.179.781-.064a.913.913 0 0 1 .035.624c-.102.257-.965.498-1.117.312ZM15.023 28.62a2.958 2.958 0 0 1-.106-1.021c-.021-.788-.011-.935.071-1a2.512 2.512 0 0 1 1.119-.084 2.722 2.722 0 0 1 .2 1.358c0 .516-.021.677-.1.752-.24.24-.354.082-.451-.626-.08-.586-.109-.678-.212-.678a2.3 2.3 0 0 0-.154 1.073c0 .173-.03.264-.1.289-.137.053-.178.044-.267-.063Zm30.954-.04a2.429 2.429 0 0 1-.211-1.311c.02-.319.051-.414.165-.507.288-.233.543-.126.615.259a3.7 3.7 0 0 1-.13 1.481.361.361 0 0 1-.439.079Zm.892-.426a3.629 3.629 0 0 1-.071-.73c-.019-.529 0-.683.076-.805a.4.4 0 0 1 .517-.156c.109.059.127.124.127.468a3.092 3.092 0 0 1-.256 1.223.3.3 0 0 1-.2.076.247.247 0 0 1-.193-.075Zm12.286-.052a1.553 1.553 0 0 1-.42-.319l-.161-.191.036-2.3a18.848 18.848 0 0 1 .1-2.38c.092-.11.358-.045.446.11a10.879 10.879 0 0 1 .1 1.927c.027 1.586.044 1.817.139 1.962.2.309.6.191.828-.242a4.845 4.845 0 0 0 .076-1.065c0-.513.025-1.342.046-1.842l.038-.91.2-.136c.4-.27.4-.306.347 2.072-.024 1.175-.068 2.27-.1 2.434a1.411 1.411 0 0 1-.685.911 1.2 1.2 0 0 1-.991-.03Zm-57.373-.358a.934.934 0 0 1-.785-.6c-.09-.19-.1-.356-.064-1.315.021-.6.08-1.563.131-2.132.093-1.045.375-3.413.437-3.666.042-.171.2-.176.408-.011s.205.26 0 1.764a16.2 16.2 0 0 0-.167 2.886c0 1.826.03 2.047.306 2.087.169.024.437-.255.508-.528.063-.245.274-2.46.369-3.871a5.326 5.326 0 0 1 .182-1.488.387.387 0 0 1 .435-.02 21.461 21.461 0 0 1-.124 2.548c-.1 1.369-.2 2.763-.222 3.1-.042.647-.176 1.073-.37 1.173a2.613 2.613 0 0 1-1.044.073Zm55.009-.144a1.02 1.02 0 0 1-.319-.252c-.129-.164-.132-.211-.132-2.072a19.6 19.6 0 0 1 .059-2.06c.069-.182.273-.21.357-.05a12.24 12.24 0 0 1 .086 1.506c.033 1.52.072 1.734.316 1.734.3 0 .334-.159.388-1.724.048-1.394.054-1.445.193-1.592.279-.3.3-.232.3.776 0 .51-.027 1.393-.055 1.962-.072 1.46-.2 1.767-.776 1.832a.947.947 0 0 1-.417-.06Zm-52.6-.126c-.252-.143-.32-.39-.28-1.026.065-1.052.348-4.575.393-4.91.042-.307.06-.336.213-.354s.167-.018.167.366c0 .4-.125 2.049-.276 3.633-.121 1.27-.121 1.274.066 1.345.164.062.575-.061.575-.172 0-.272.459-4.36.518-4.62a.16.16 0 0 1 .184-.137c.206 0 .238.119.16.593-.037.221-.151 1.348-.255 2.505-.2 2.257-.255 2.506-.579 2.719a1.092 1.092 0 0 1-.886.058Zm50.553-.281c-.316-.184-.407-.817-.351-2.457a12.9 12.9 0 0 1 .087-1.364.216.216 0 0 1 .362.068c.02.075.037.7.038 1.387a4.67 4.67 0 0 0 .074 1.323.192.192 0 0 0 .317-.026c.021-.054.046-.682.056-1.395.019-1.384.042-1.488.322-1.488.14 0 .145.016.145.47 0 .259-.043 1.087-.095 1.84l-.095 1.37-.18.167a.593.593 0 0 1-.68.105Zm-1.935-.285-.187-.167.055-1.571c.045-1.286.072-1.588.15-1.665.052-.052.12-.078.152-.059a7.335 7.335 0 0 1 .1 1.239c.042 1.166.083 1.394.223 1.254.111-.111.17-.5.214-1.419.042-.886.09-1.156.206-1.156a8.7 8.7 0 0 1 .062 1.678v1.678l-.178.178a.539.539 0 0 1-.797.01Zm-46.468.012c-.3-.209-.337-.4-.292-1.424.023-.52.1-1.52.16-2.223.1-1.039.137-1.292.221-1.354.211-.156.225 0 .136 1.49-.048.8-.081 1.648-.074 1.895.018.633.216.9.462.63a8.882 8.882 0 0 0 .353-1.9 15.609 15.609 0 0 1 .33-1.875.2.2 0 0 1 .333.157c0 .087-.094.954-.208 1.928s-.227 1.941-.249 2.151c-.033.307-.071.4-.2.5a1.131 1.131 0 0 1-.972.024Zm44.849-.327c-.18-.11-.195-.146-.232-.563a12.072 12.072 0 0 1 .059-2.341c.176-.056.231.11.31.945a5.564 5.564 0 0 0 .152.991c.143.268.221-.026.267-1.014.046-.972.092-1.125.313-1.04.091.035.1.151.057 1.187-.052 1.369-.089 1.563-.336 1.785a.394.394 0 0 1-.59.05Zm-42.427.01a.931.931 0 0 1-.58-.442 1.569 1.569 0 0 1-.09-.6c0-.421.217-2.646.284-2.913.051-.2.226-.279.34-.149.082.093.08.245-.013 1.4-.126 1.559-.1 1.774.186 1.774.206 0 .3-.273.508-1.526.234-1.39.245-1.433.407-1.52.09-.048.124-.039.155.041.043.113-.087 2.68-.159 3.137a1.376 1.376 0 0 1-.147.441.956.956 0 0 1-.892.357Zm40.967-.1c-.229-.16-.312-.5-.358-1.472s-.016-1.1.214-.874c.1.1.125.207.13.6.007.562.056.769.189.794s.152-.117.2-1c.034-.581.056-.683.149-.707.253-.066.275.024.255 1.035-.022 1.091-.067 1.334-.294 1.561-.183.17-.302.188-.483.059Zm9.889-.072c-.066-.08-.081-.369-.069-1.384.015-1.318.055-1.649.2-1.649s.2.421.165 1.673c-.038 1.446-.076 1.622-.297 1.356Zm-13.622-.206a8.61 8.61 0 0 1-.241-1.8c0-.42.061-.514.342-.514.245 0 .266.034.389.637.082.4.122.492.222.507s.125-.026.16-.517c.032-.452.058-.552.172-.645a.329.329 0 0 1 .519.079 4.213 4.213 0 0 1 .144.792c.062.548.059.672-.021.861a1.385 1.385 0 0 1-1.017.625c-.517.122-.591.119-.67-.029Zm-35.2-.053a1.171 1.171 0 0 1-.319-.326c-.123-.2-.131-.289-.131-1.485a4.8 4.8 0 0 1 .073-1.347c.087-.087.271-.1.321-.015a9.43 9.43 0 0 1 .056 1.084c.022 1.135.08 1.37.342 1.4.244.028.3-.161.405-1.255a6.5 6.5 0 0 1 .15-1.073c.037-.039.093-.036.161.007.094.06.1.192.094 1.289-.013 1.38-.058 1.571-.413 1.74a.726.726 0 0 1-.743-.023Zm46.251-.179c-.027-.093-.062-1.873-.044-2.251 0-.09.045-.137.119-.137.095 0 .119.065.152.411.021.226.039.787.039 1.247 0 .786-.007.837-.117.837a.162.162 0 0 1-.149-.107Zm-55.039-.819a24.3 24.3 0 0 1 .43-4.35c.074-.225.21-.26.271-.069a19.056 19.056 0 0 1-.217 2.731c-.063.519-.144 1.231-.18 1.582-.066.641-.152.973-.251.973a3.582 3.582 0 0 1-.053-.867Zm10.385.637c-.258-.285-.294-.517-.23-1.487a4.748 4.748 0 0 1 .124-.982c.136-.136.187.086.2.89a2.458 2.458 0 0 0 .091.906c.142.142.251-.078.351-.71.146-.92.137-.892.289-.871.13.018.135.047.152.766.019.834-.039 1.138-.267 1.41a.418.418 0 0 1-.384.185.452.452 0 0 1-.327-.108Zm-7.774-.073c-.088-.051-.087-.131.014-.9.061-.462.164-1.356.229-1.988a7.646 7.646 0 0 1 .18-1.21.159.159 0 0 1 .156-.024c.138.053.123.426-.087 2.231-.227 1.946-.249 2.033-.493 1.89Zm10.592-.174c-.185-.035-.215-.065-.232-.234-.028-.287.181-.407.615-.353a1.7 1.7 0 0 1 .391.081.308.308 0 0 1 .063.389 1.182 1.182 0 0 1-.838.116Zm-8.5-.633c.021-.243.069-.879.106-1.415.072-1.034.118-1.247.269-1.247s.168.154.039 1.171c-.22 1.731-.258 1.932-.36 1.932-.076-.001-.085-.07-.053-.442Zm2.145.214a9.259 9.259 0 0 1 .2-2.412c.068-.18.23-.212.289-.058a13.733 13.733 0 0 1-.237 2.3c-.062.151-.187.233-.25.169Zm2.122-.263a5.762 5.762 0 0 1 0-.918c.034-.611.064-.8.133-.826a.134.134 0 0 1 .148.051 7.4 7.4 0 0 1-.046 1.682c-.043.17-.182.176-.233.01Zm4.154-.305a.256.256 0 0 1 .011-.419 1.774 1.774 0 0 1 .965.01.264.264 0 0 1-.023.379 1.455 1.455 0 0 1-.954.029Zm.811-1.43a1.072 1.072 0 0 0-.389-.2c-.29-.059-.28-.217.035-.544a3.173 3.173 0 0 0 .384-.48c.062-.109.141-.189.176-.178a4.96 4.96 0 0 1 .043 1.515c-.03.027-.133-.019-.247-.114Zm33.66.035c-.207-.083-.319-.308-.363-.728-.035-.333-.025-.4.072-.467.188-.137.272-.1.272.122 0 .454.257.813.461.644.068-.056.079-.159.05-.445-.032-.317-.021-.387.075-.469.218-.187.31-.182.35.018a2.942 2.942 0 0 1 0 .922.643.643 0 0 1-.915.402Zm1.547-.228c-.2-.125-.209-.148-.282-.805-.064-.578-.031-.669.241-.669.215 0 .232.028.279.483.042.405.078.458.272.4.12-.038.127-.073.1-.556-.024-.467-.015-.523.1-.6.17-.119.339-.11.348.019a9.285 9.285 0 0 1-.076 1.551.78.78 0 0 1-.98.175Zm-5.326-.148a6.1 6.1 0 0 1-.036-1.656.173.173 0 0 1 .154-.1c.25 0 1.042.976 1.124 1.384.038.192.034.2-.166.193a1.166 1.166 0 0 1-.327-.053c-.09-.036-.18 0-.343.126-.246.193-.299.21-.404.104Zm7.064-.182c-.18-.087-.187-.115-.236-.956-.042-.721-.04-.736.085-.736.163 0 .229.129.279.548s.119.548.231.437a1.226 1.226 0 0 0 .079-.6v-.525l.2-.115c.108-.063.226-.1.263-.073s.055.307.027.932c-.038.845-.048.9-.191 1.028a.722.722 0 0 1-.735.058Zm1.618-.249c-.2-.132-.209-.162-.244-.593a18.08 18.08 0 0 1-.046-.987l-.008-.532h.179a.328.328 0 0 1 .21.05 5.827 5.827 0 0 1 .1.715c.077.765.153.907.364.686.13-.136.134-.178.107-.946-.025-.7-.016-.816.074-.9a.235.235 0 0 1 .369 0 8.581 8.581 0 0 1-.062 2.278.875.875 0 0 1-.646.367.859.859 0 0 1-.395-.14Zm2.1-.219a1.44 1.44 0 0 1-.319-.282c-.125-.159-.132-.227-.132-1.463 0-1.263 0-1.3.128-1.336a.21.21 0 0 1 .187.019 2.608 2.608 0 0 1 .113.676c.056.649.176 1 .378 1.11a.152.152 0 0 0 .218-.033c.078-.078.108-.318.151-1.177.049-1 .063-1.087.184-1.185.282-.226.283-.216.283 1.613 0 1.461-.014 1.741-.095 1.856a.871.871 0 0 1-1.094.199Zm-43.275-.231c.024-.338-.1-.433-.157-.121-.043.227-.175.377-.277.315a.554.554 0 0 1-.1-.279c-.046-.29-.123-.309-.191-.047a.489.489 0 0 1-.158.259c-.173.106-.364-.168-.312-.446a.78.78 0 0 1 1.159-.646.764.764 0 0 1 .391.765c0 .312-.089.485-.251.485-.104-.002-.119-.034-.104-.285Zm45.956-.107a1.417 1.417 0 0 1-.365-.275l-.183-.194v-3.3l.162-.043c.159-.043.163-.037.2.3.02.189.062.759.093 1.267.071 1.175.183 1.433.579 1.333.3-.074.335-.275.338-1.721s.016-1.509.347-1.576l.184-.037.039 1.3c.021.714.055 1.562.074 1.883l.035.584-.193.22a1.216 1.216 0 0 1-1.307.258Zm-47.793-.351a1.129 1.129 0 0 0-.06-.415c-.045-.069-.059-.042-.06.11 0 .243-.1.437-.213.437-.062 0-.091-.1-.1-.35l-.018-.35-.081.244a1.662 1.662 0 0 1-.168.362c-.079.108-.1.11-.183.022s-.087-.143-.023-.451c.119-.571.51-.849.942-.668.292.122.357.317.294.886-.045.409-.065.458-.188.476s-.138-.003-.139-.303Zm38.066-.057a.638.638 0 0 1-.1-.311c0-.2.083-.244 1-.536a8.118 8.118 0 0 0 3.431-2.02 7.934 7.934 0 0 1 1.958-1.321c1.371-.74 1.825-1.113 1.825-1.5a1.276 1.276 0 0 0-.406-.876c-.424-.515-.848-.759-1.191-.685-.195.042-.111.134.44.486a3.188 3.188 0 0 1 .576.424c.016.041-.022.1-.084.135-.089.047-.248-.009-.743-.263-1.113-.572-1.339-.5-.337.1.419.253.589.389.589.473 0 .185-.22.147-.888-.155a4.067 4.067 0 0 0-.715-.268c-.111 0-.112 0-.008.118a3.657 3.657 0 0 0 .5.372c.258.168.388.293.388.372 0 .144-.076.125-.693-.171-.5-.239-.645-.258-.645-.083q0 .123.331.334c.369.236.441.318.355.4-.037.037-.207 0-.47-.1a2.657 2.657 0 0 0-.526-.155c-.2 0-.126.206.189.517.4.392.316.478-.2.211-.39-.2-.561-.211-.629-.033-.019.05.052.2.161.333s.181.282.159.338c-.031.081-.084.071-.371-.07-.371-.182-.466-.161-.316.068.2.31.113.4-.267.268-.18-.063-.213-.056-.309.063s-.1.144.007.39c.063.141.093.279.066.306s-.163-.01-.3-.082c-.331-.172-.461-.125-.416.152s-.053.354-.307.281c-.222-.064-.258-.039-.258.178s-.027.236-.309.16c-.3-.08-.368-.007-.3.306.059.261-.033.314-.305.173-.246-.127-.311-.1-.4.155-.065.193-.089.208-.289.19s-.23 0-.315.167c-.129.25-.278.238-.578-.047-.27-.257-.318-.476-.139-.63.059-.051.408-.264.776-.473a7.039 7.039 0 0 0 3.105-2.884 1.752 1.752 0 0 0 .188-1.395 1 1 0 0 0-1.527-.556.463.463 0 0 0-.154.411.749.749 0 0 0 .486.71c.343.175.433.286.387.476a6.392 6.392 0 0 1-1.172 1.887 5.391 5.391 0 0 1-2.371 1.468c-.46.155-.661.127-.955-.132-.356-.313-.285-.438.461-.811a5.441 5.441 0 0 0 2.118-1.748c.391-.6.391-.665 0-1.07a1.142 1.142 0 0 1-.464-1.171 1.829 1.829 0 0 0-.041-.6 5.485 5.485 0 0 0-.7-.313 2.957 2.957 0 0 1-1.584-1.051 1.226 1.226 0 0 1-.18-.8 5.267 5.267 0 0 1 1.131-2.889 7.01 7.01 0 0 0 .511-.832c0-.038-.048-.083-.106-.1-.251-.078-1.469-.285-2.54-.433l-2.19-.305a108.716 108.716 0 0 0-15.3-.739 69.3 69.3 0 0 0-6.936.287c-3.711.311-8.276.971-8.429 1.218-.05.081.049.238.584.925a4.135 4.135 0 0 1 1.132 2.25c.074.694-.217 1.116-1.335 1.942l-.666.491.039.313a.636.636 0 0 1-.145.586 1.967 1.967 0 0 1-.452.451.856.856 0 0 0-.464.84 1.841 1.841 0 0 0 .628 1.283 12.67 12.67 0 0 0 3.114 1.562c.508.143.639.21.639.329a3.587 3.587 0 0 1-.492.6c-.566.611-.607.623-1.389.406a9.784 9.784 0 0 1-3.751-2.337c-.822-.822-1.131-1.24-1.161-1.57-.022-.244-.009-.269.23-.441.382-.274.5-.467.434-.678a.791.791 0 0 0-.819-.411.732.732 0 0 0-.793.5c-.3.669.163 1.826 1.118 2.816a9.491 9.491 0 0 0 2.15 1.534 15.971 15.971 0 0 1 1.392.924c.2.188.225.229.154.315s-.156.092-.426.067a5.958 5.958 0 0 1-2.093-.956c-.857-.521-4.493-2.436-5.111-2.69-.234-.1-.741-.287-1.126-.423-1.116-.394-1.279-.513-1.276-.929 0-.557.339-.943 1.459-1.675a2.544 2.544 0 0 0 .578-.448 4.88 4.88 0 0 0-1.856-.538c-.808-.09-.888-.067-.837.239.021.125.055.447.077.716a1.091 1.091 0 0 1-.094.748 2.1 2.1 0 0 1-.888.9c-.485.254-.528.209-.621-.653-.041-.381-.1-.871-.128-1.088a1.419 1.419 0 0 1 .158-1.011 2.978 2.978 0 0 1 1.749-1.21 3.957 3.957 0 0 1 1.389-.153 24.7 24.7 0 0 1 1.925.1 8.287 8.287 0 0 0 4.016-.231 3.57 3.57 0 0 0 1.4-.875c0-.289-1.328-.262-2.89.06-4.253.875-5.195.924-5.926.307-.288-.242-.4-.537-.574-1.494a3.257 3.257 0 0 0-.712-1.763 7.11 7.11 0 0 1-.522-.913 2.011 2.011 0 0 1 .233-2.029c.466-.565 2.19-1.133 5.82-1.919a112.5 112.5 0 0 1 24.235-2.5c3.983 0 5.911.065 9.145.308.823.062 3.27.363 4.168.513.284.048 1.01.158 1.612.245 2.646.384 6.509 1.14 8.579 1.679a43.856 43.856 0 0 1 5.017 1.595c1.131.5 1.377.836 1.331 1.8a3.048 3.048 0 0 1-.783 1.767 2.78 2.78 0 0 0-.664 1.551 6.164 6.164 0 0 1-.131.681 1.314 1.314 0 0 1-.827.717 2.721 2.721 0 0 1-1.935.041 26.377 26.377 0 0 0-5.445-.761c-1.176-.009-1.4.024-1.4.2s.462.589.882.8c.7.341.555.336 5.841.2 2.233-.057 3.208.087 3.991.589a2.028 2.028 0 0 1 .784.946.8.8 0 0 1 .128.73 8.676 8.676 0 0 1-.779 1.86c-.149.173-.382.009-.618-.437a2.848 2.848 0 0 1-.241-1.333c-.049-.892-.024-.873-1.134-.838-1.135.036-1.568.227-1.117.493a11.285 11.285 0 0 1 2.226 2.1c.415.548.479.863.265 1.305-.154.318-.373.444-.935.537a4.274 4.274 0 0 0-1.742.552c-.824.43-3.1 1.748-3.766 2.185a10.694 10.694 0 0 1-3.795 1.482c-.307.042-.344.033-.435-.096Zm11.6-7.33a1.271 1.271 0 0 0 .128-.517 1.313 1.313 0 0 0-.621-.42c-.118 0-.2.376-.2.932 0 .436.022.573.106.666.1.115.109.113.263-.071a2.84 2.84 0 0 0 .332-.591Zm-59.119.478c.354-.376.4-.814.182-1.627-.159-.585-.246-.629-.534-.266a.912.912 0 0 0-.228.682 3.4 3.4 0 0 0 .179 1.241c.077.182.217.172.408-.031Zm48.409-1.5a4.909 4.909 0 0 1 2.688-.431 16.337 16.337 0 0 1 2.473.143l1.074.141.727-.189a5.9 5.9 0 0 1 2.571-.161l.776.137c.271.047.263-.1-.023-.373-.544-.528-1.243-.613-4.511-.549-1.363.027-2.971.046-3.575.042a3.46 3.46 0 0 1-1.594-.188 3.269 3.269 0 0 1-1.394-.9c-.158-.192-.263-.267-.379-.267a3.946 3.946 0 0 0-1.46.941c-.269.284-.309.358-.277.5a1.184 1.184 0 0 0 .586.708 5.489 5.489 0 0 0 1.7.644 2.227 2.227 0 0 0 .625-.198Zm-42.974-.186a15.067 15.067 0 0 1 3.316 0c.335.052.814.109 1.065.127l.456.033.681-.342a3.824 3.824 0 0 0 1.11-.758 2.071 2.071 0 0 0 .43-.505c0-.2-.6-.561-1.446-.879-.464-.175-.608-.178-.806-.018a7.729 7.729 0 0 1-2.16 1.134 9.342 9.342 0 0 1-2.951.192 21.448 21.448 0 0 0-3.769-.056c-.991.145-1.331.43-.514.43a11.212 11.212 0 0 1 3.067.663c.369.135.455.134 1.528-.021Zm40.855-2.346c1.269-.751 1.754-.844 3.88-.738a23.83 23.83 0 0 1 4.232.582 4.048 4.048 0 0 0 2.016.131c.281-.1.3-.191.054-.341a49.652 49.652 0 0 0-8.1-2.122c-.723-.1-.826-.1-1.034-.022a5.191 5.191 0 0 0-1.482 1.812c-.287.578-.407 1.063-.262 1.063a4.474 4.474 0 0 0 .702-.364Zm-33.9-.067a7.635 7.635 0 0 0-1.607-2.322c-.2-.217-.314-.289-.447-.289a59.83 59.83 0 0 0-6.2 1.408c-1.008.283-2.413.983-2.31 1.151a4.007 4.007 0 0 0 .915.057 9.549 9.549 0 0 0 2.415-.3c3.784-.742 4.409-.728 6.384.142a5.566 5.566 0 0 0 .809.315c.032-.009.05-.081.041-.162ZM3.513 9.968c1.351-.831 3.125-1.375 7.317-2.243a90.628 90.628 0 0 1 10.579-1.517c.782-.068 1.48-.138 1.551-.153.712-.159 8.211-.216 11.933-.091a62.3 62.3 0 0 1 7.666.49c3.14.4 5.724.826 8.883 1.459a53.443 53.443 0 0 1 6.009 1.48c.761.22 1.473.407 1.582.416l.2.015.093-.456a3.31 3.31 0 0 1 .651-1.538 3.623 3.623 0 0 0 .733-1.718c.075-1.074-.255-1.3-3.181-2.176A77.037 77.037 0 0 0 46.301 1.43c-.385-.054-1.124-.164-1.643-.245a90.328 90.328 0 0 0-15.15-.818 110.673 110.673 0 0 0-11.165.731 79.677 79.677 0 0 0-8.887 1.338c-.8.17-1.689.35-1.973.4-.809.145-3.055.671-3.894.913a6.547 6.547 0 0 0-1.874.793 1.233 1.233 0 0 0-.423 1.171 2 2 0 0 0 .561 1.337 4.425 4.425 0 0 1 .7 1.021 8.63 8.63 0 0 1 .179 1.03c.106.827.187 1.121.309 1.121a2.805 2.805 0 0 0 .472-.254Zm53.979-1.384c-.277-.277-.247-.572.186-1.852.4-1.194.492-1.393.719-1.636a.456.456 0 0 1 .375-.167c.462 0 .667.367.52.931-.126.483-.727 2.236-.849 2.476-.232.457-.635.564-.951.248Zm.635-.476a18.2 18.2 0 0 0 .736-2.195c.139-.539.026-.793-.227-.513a13.944 13.944 0 0 0-.8 2.223c-.134.475-.153.613-.094.684.127.154.234.099.385-.2Zm-53.908.445a1.285 1.285 0 0 1-.263-.307A27.035 27.035 0 0 1 2.92 5.193c0-.16.147-.23.242-.116.038.046.287.708.555 1.471s.528 1.452.578 1.53a.23.23 0 0 0 .225.122c.213-.03.164-.311-.309-1.783-.563-1.754-.527-1.606-.409-1.651a.2.2 0 0 1 .192.053 20.193 20.193 0 0 1 1.055 3.188.585.585 0 0 1-.137.416.568.568 0 0 1-.694.129Zm51.874-.395c-.243-.243-.233-.473.068-1.564a6.057 6.057 0 0 1 .747-1.959.48.48 0 0 1 .675-.062.9.9 0 0 1 .146.933c-.068.263-.1.3-.231.3-.151 0-.152 0-.13-.477s.021-.476-.122-.456c-.125.018-.174.111-.37.693a10.487 10.487 0 0 0-.565 2.267c.063.253.233.126.453-.339.209-.44.294-.513.421-.36.081.1.025.319-.191.744-.242.48-.594.587-.902.28Zm-50.48-.055a9 9 0 0 1-.72-2.137c-.361-1.255-.382-1.482-.171-1.512.1-.014.206.1.5.522.339.5.56.756.56.66 0-.021-.068-.328-.152-.682a3.121 3.121 0 0 1-.118-.7c.079-.128.2-.037.317.234a23.2 23.2 0 0 1 .926 3.166c0 .184-.165.242-.274.1a21.177 21.177 0 0 1-.453-.692c-.432-.681-.538-.824-.581-.781a5.464 5.464 0 0 0 .184.874c.238.932.235 1.109-.018.948Zm49.592-.226a1.152 1.152 0 0 1 0-.38 28.864 28.864 0 0 1 .894-3.24c.119-.073.239 0 .239.152a26.884 26.884 0 0 1-.924 3.484c-.082.1-.165.1-.209-.016Zm-.566-.206a.738.738 0 0 1-.064-.289 1.389 1.389 0 0 0-.117-.628 1.66 1.66 0 0 0-.271.362c-.274.429-.354.5-.486.454s-.125-.182.015-.381c.063-.089.26-.449.438-.8l.324-.639.025-.932c.02-.744.043-.939.113-.966.143-.055.2.06.251.47.048.433.144.519.281.254s.4-.564.468-.525c.113.07.046.292-.31 1.015l-.365.743v.894a7.958 7.958 0 0 1-.037.99c-.051.131-.189.12-.265-.023ZM7.125 7.556c-.081-.152-.765-2.554-.866-3.044-.058-.279-.06-.392-.008-.443.2-.2.277-.006.838 2.046.316 1.154.362 1.5.2 1.538a.173.173 0 0 1-.164-.097Zm45.672-.168c-.267-.083-.289-.105-.289-.289a23.791 23.791 0 0 1 .824-3.506c.066-.07.142-.073.433-.014.346.069.573.206.487.293a.83.83 0 0 1-.322.053.494.494 0 0 0-.333.095 2.394 2.394 0 0 0-.213.846c-.034.327-.03.337.158.441.235.13.212.241-.062.3a.535.535 0 0 0-.279.142 3.947 3.947 0 0 0-.232 1.255.72.72 0 0 0 .251.154c.142.059.2.121.19.192-.028.136-.253.15-.614.038ZM8.132 7.293c-.1-.15-1-2.338-1.2-2.925-.128-.365-.117-.531.035-.531.084 0 .168.156.645 1.2a1.46 1.46 0 0 0 .255.441 2.222 2.222 0 0 0 .008-.715c-.068-1.056-.065-1.135.049-1.158a.136.136 0 0 1 .141.09 30.433 30.433 0 0 1 .355 3.119c.011.5 0 .579-.09.6a.231.231 0 0 1-.198-.121Zm1.075-.181a1.15 1.15 0 0 1-.131-.325c-.112-.424-.544-2.6-.588-2.961-.039-.32-.032-.35.1-.421a1.093 1.093 0 0 1 .746-.1c.113.06.112.067-.03.176a.565.565 0 0 1-.215.114.255.255 0 0 0-.145.094c-.062.075-.058.187.022.586a2.447 2.447 0 0 0 .163.57.581.581 0 0 0 .274.116c.263.049.267.141.017.347l-.2.161.106.6a3.025 3.025 0 0 0 .172.676.559.559 0 0 0 .332.08c.2 0 .266.024.266.093.004.164-.77.338-.891.191Zm42.655-.019a4.124 4.124 0 0 1 .063-.773c.113-.81.124-1.173.031-1.014a8.09 8.09 0 0 0-.265.669c-.271.747-.406 1.021-.5 1.021-.057 0-.08-.1-.08-.35a15.963 15.963 0 0 0-.1-1.7c-.012.012-.105.4-.206.868s-.2.893-.216.952a.126.126 0 0 1-.242.023 30.088 30.088 0 0 1 .619-3.552c.105-.161.193-.171.377-.042.126.088.136.143.139.776a4.44 4.44 0 0 0 .053.8c.044.11.059.1.149-.091.055-.117.189-.443.3-.724.214-.555.306-.654.552-.592.134.034.162.075.162.242 0 .215-.38 2.6-.495 3.112-.102.422-.257.594-.341.375Zm-41.453-.27c-.064-.12-.674-3.26-.674-3.471 0-.189.17-.275.527-.267.386.009.486.075.641.425a2.023 2.023 0 0 1 .164 1.241c-.084.328-.073.379.307 1.363.2.516.2.639.014.639-.12 0-.171-.089-.528-.913-.255-.589-.294-.589-.238 0 .081.855.072 1.059-.045 1.082a.177.177 0 0 1-.168-.098Zm.3-2.224a1.945 1.945 0 0 0-.156-1c-.112-.171-.253-.232-.339-.147a2.665 2.665 0 0 0 .166 1.154c.088.223.24.219.326-.006Zm1.418 2.046c-.171-.027-.361-.266-.451-.565-.153-.509.117-.576.356-.088.164.334.285.407.431.262.218-.218-.007-.882-.481-1.415a3.939 3.939 0 0 1-.519-.73c-.345-.74-.04-1.509.506-1.28a.677.677 0 0 1 .408.625c.01.324-.143.294-.314-.063-.076-.159-.178-.289-.226-.289-.226 0-.25.471-.046.882a4.034 4.034 0 0 0 .441.579 2.208 2.208 0 0 1 .63 1.128 1.186 1.186 0 0 1-.157.776.718.718 0 0 1-.581.178Zm1.105-.328a28.88 28.88 0 0 1-.57-3.443c.014-.12.053-.167.141-.167.152 0 .187.136.484 1.855.239 1.384.256 1.781.079 1.814a.117.117 0 0 1-.134-.059Zm34.115.029c-.3-.058-.294-.226.107-2.462.2-1.116.257-1.314.395-1.366a.842.842 0 0 1 .709.221c.156.156.173.214.173.584a11.71 11.71 0 0 1-.44 2.567.752.752 0 0 1-.94.456Zm.557-.459a16.685 16.685 0 0 0 .528-2.594c0-.261-.12-.433-.3-.433-.088 0-.131.091-.209.433-.12.531-.121.778 0 .932a.324.324 0 0 1-.06.494.533.533 0 0 0-.192.23 4.056 4.056 0 0 0-.162 1c.041.124.303.087.399-.062Zm-33.963.364a26.29 26.29 0 0 1-.559-3.452c0-.291.109-.365.538-.365.262 0 .323.025.458.184.195.232.247.418.435 1.547.252 1.521.187 1.957-.317 2.1-.304.083-.473.079-.551-.014Zm.562-.384c.119-.119.119-.3 0-1.214-.184-1.48-.318-1.915-.589-1.915-.125 0-.128.019-.093.532a20.322 20.322 0 0 0 .411 2.533c.072.183.139.199.275.064Zm.847.144c-.028-.044-.06-.889-.07-1.879-.016-1.568-.006-1.81.076-1.878s.114-.062.182-.006a18.253 18.253 0 0 1 1.068 3.536.106.106 0 0 1-.113.118c-.08 0-.146-.086-.222-.289-.147-.394-.2-.45-.42-.429-.183.018-.189.029-.249.439s-.145.549-.249.389Zm.525-1.555c0-.26-.223-.8-.245-.593a3.437 3.437 0 0 0 .043.776.149.149 0 0 0 .115.046c.065 0 .091-.069.09-.228Zm1.05 1.367a22.606 22.606 0 0 1-.441-2.958c-.086-.8-.06-.858.408-.858a.625.625 0 0 1 .664.35 11.86 11.86 0 0 1 .37 2.339c.046.672-.01.883-.275 1.039s-.635.198-.726.088Zm.67-.667a8.739 8.739 0 0 0-.413-2.729c-.119-.131-.3-.152-.343-.039a13.924 13.924 0 0 0 .439 3.056c.131.158.296.007.317-.288Zm27.406.558a2.408 2.408 0 0 1-.039-.391c0-.212-.078-.31-.274-.344-.1-.016-.158.052-.287.314-.2.4-.278.5-.355.454-.1-.064-.06-.3.25-1.373.646-2.227.734-2.432.986-2.3.116.062.118.111.075 1.656-.051 1.839-.081 2.13-.219 2.157-.068.015-.106-.039-.137-.172Zm0-1.491c.045-.3-.008-.6-.1-.542a1.13 1.13 0 0 0-.155.37c-.074.256-.081.354-.027.419.113.142.236.037.278-.246Zm-1.654.507c.024-.622.017-.944-.019-.867s-.169.486-.307.932c-.2.656-.271.806-.355.79-.107-.02-.116-.081-.229-1.529a1.317 1.317 0 0 0-.07-.444 8.884 8.884 0 0 0-.171.924c-.144.922-.238 1.157-.391.972-.087-.1-.05-.589.188-2.5.131-1.048.212-1.308.408-1.308.261 0 .312.122.376.91a3.8 3.8 0 0 0 .118.814c.034.034.144-.225.282-.667a6.34 6.34 0 0 1 .286-.8.387.387 0 0 1 .466.009c.077.093.047.5-.181 2.439-.13 1.11-.181 1.308-.337 1.308-.095.006-.101-.093-.067-.982Zm-2.687.763a.668.668 0 0 1-.289-.209c-.187-.223-.2-.539-.064-1.726.173-1.52.29-1.871.663-2a.581.581 0 0 1 .654.307 10.689 10.689 0 0 1-.1 2.464c-.109.72-.258 1.041-.526 1.135a1.147 1.147 0 0 1-.2.059.838.838 0 0 0-.138-.03Zm.342-.581a21.368 21.368 0 0 0 .31-2.559c0-.56-.3-.648-.417-.123a13.064 13.064 0 0 0-.212 2.839c.105.106.259.03.319-.156Zm-21.04.274c-.068-.258-.2-1.211-.342-2.5-.089-.8-.089-.884 0-.972.156-.156.267-.029.578.66.362.8.448.848.4.206-.02-.263-.049-.581-.065-.707-.022-.172 0-.239.067-.267a.157.157 0 0 1 .153.02 21.04 21.04 0 0 1 .45 3.557c-.083.26-.236.071-.574-.708-.484-1.116-.484-1.117-.487-.628a7.421 7.421 0 0 0 .062.869 2.241 2.241 0 0 1 .028.577c-.064.2-.205.14-.27-.106Zm19.654.059c-.051-.1-.433-1.8-.433-1.928 0-.031-.028-.028-.061.005a4.693 4.693 0 0 0-.153.932 8.977 8.977 0 0 1-.125.924.2.2 0 0 1-.151.053c-.1 0-.118-.043-.118-.279 0-.623.253-3.4.317-3.478a.236.236 0 0 1 .2-.064c.108.015.151.117.285.664.179.734.226.877.275.828a4.246 4.246 0 0 0 .121-.655 5.389 5.389 0 0 1 .12-.674.133.133 0 0 1 .229.034 32.263 32.263 0 0 1-.241 3.541c-.049.177-.194.23-.265.097Zm-18.113-.234a24.259 24.259 0 0 1 .159-3.518.163.163 0 0 1 .3.023c.106.2.8 3.04.812 3.34.013.249 0 .289-.1.289-.084 0-.143-.078-.213-.281-.116-.339-.226-.479-.374-.479s-.188.077-.266.512c-.047.262-.1.374-.168.388s-.116-.048-.15-.274Zm.643-1.278c0-.212-.127-.631-.192-.631s-.086.518-.02.715c.05.148.213.083.213-.083Zm1.178 1.41c-.273-.192-.4-.806-.479-2.381-.04-.771.018-1.175.2-1.378a.632.632 0 0 1 .62-.047c.254.136.427 1.055.214 1.137-.127.049-.137.032-.245-.38-.184-.707-.453-.652-.452.094a18.523 18.523 0 0 0 .234 2.444c.07.185.208.256.306.159a.992.992 0 0 0 .068-.44.922.922 0 0 1 .091-.49c.09-.117.092-.117.183 0a1.346 1.346 0 0 1 .023.922.5.5 0 0 1-.763.36Zm14.019.024c-.217-.126-.289-.388-.289-1.048a14.964 14.964 0 0 1 .189-2.4.573.573 0 0 1 1.123.074 20.862 20.862 0 0 1-.158 2.813c-.086.4-.288.626-.558.624a.764.764 0 0 1-.308-.063Zm.526-.744a20.374 20.374 0 0 0 .108-2.506c-.033-.189-.073-.248-.179-.263-.194-.028-.237.131-.314 1.162-.1 1.309-.088 1.9.033 2.02.09.09.107.09.206 0a.775.775 0 0 0 .146-.413Zm-3.515.5a1.062 1.062 0 0 1-.2-.41 23.854 23.854 0 0 1 .162-3.245c.036-.068.1-.112.138-.1a6.89 6.89 0 0 1 .078 1.74c0 1.475.013 1.724.1 1.807a.193.193 0 0 0 .33-.092c.019-.061.071-.821.115-1.689s.1-1.61.123-1.648c.077-.125.215-.073.258.1a21.117 21.117 0 0 1-.182 3.316c-.191.437-.644.55-.922.225Zm1.737.082a11.356 11.356 0 0 1 .007-1.746l.065-1.636-.139-.113c-.217-.176-.124-.3.222-.288.613.015.833.152.508.314-.2.1-.224.233-.308 1.7-.04.7-.09 1.392-.112 1.546-.044.311-.149.404-.243.226Zm-11.537-.012a22 22 0 0 1-.222-3.653c.071-.133.155-.158.213-.064a14.683 14.683 0 0 1 .221 2.3c.06 1.04.059 1.3 0 1.375-.089.111-.162.125-.212.042Zm.862-.021c-.223-.168-.292-.515-.358-1.8-.07-1.346-.037-1.667.194-1.9a.536.536 0 0 1 .886.173 13.112 13.112 0 0 1 .181 2.9c-.057.457-.259.7-.575.7a.667.667 0 0 1-.329-.071Zm.432-.281a.506.506 0 0 0 .113-.289 20.974 20.974 0 0 0-.165-2.886c-.086-.162-.219-.148-.338.034-.09.137-.093.288-.034 1.552.073 1.582.126 1.779.424 1.591Zm.9.244a26.844 26.844 0 0 1-.15-2.837c.006-.831.041-.973.238-.973.134 0 .172.067.393.68a7.235 7.235 0 0 0 .283.718 2.556 2.556 0 0 0 .082-.665c.039-.618.057-.7.153-.7.157 0 .192.258.236 1.734.051 1.7.036 1.977-.112 1.977-.122 0-.2-.166-.518-1.156a4.07 4.07 0 0 0-.212-.566 3.74 3.74 0 0 0-.123 1.281 2.513 2.513 0 0 1-.026.5.569.569 0 0 0-.116.035.109.109 0 0 1-.131-.027Zm3.123-.042c-.091-.11-.089-.049-.071-2.172.013-1.589.016-1.628.132-1.628a.161.161 0 0 1 .149.076c.014.042.048.828.074 1.747l.053 1.677.293.082c.166.047.283.113.269.152-.055.166-.773.219-.899.066Zm-1.6-.063a25.37 25.37 0 0 1 .4-3.542c.05-.156.094-.2.2-.183.184.026.237.227.49 1.862.248 1.6.262 1.825.121 1.879-.121.046-.2-.064-.246-.364a.931.931 0 0 0-.145-.362c-.088-.108-.13-.12-.248-.067s-.165.155-.239.453c-.106.394-.254.541-.336.326Zm.742-1.44a1.387 1.387 0 0 0-.055-.421c-.069-.245-.077-.253-.119-.111a1.441 1.441 0 0 0-.016.691c.075.079.168.002.187-.156Zm3.6 1.359c0-.347.336-2.592.5-3.306.054-.244.086-.289.207-.289a.244.244 0 0 1 .177.057 23.279 23.279 0 0 1 .373 3.565c-.041.163-.185.2-.237.068a2.7 2.7 0 0 1-.074-.363c-.051-.343-.158-.447-.377-.37-.129.045-.177.125-.255.42-.066.25-.13.371-.2.385s-.115-.023-.115-.165Zm.785-1.427c-.008-.329-.085-.591-.136-.465a1.249 1.249 0 0 0-.093.709c.117.146.234.027.228-.241ZM10.052 21.405a.96.96 0 0 1-.073-.453c0-.5-.1-.554-.157-.085-.043.378-.139.529-.3.468-.07-.027-.092-.137-.092-.463 0-.639-.114-.568-.215.135-.035.244-.062.289-.175.289-.3 0-.344-.232-.18-.886.125-.5.331-.7.723-.7a.885.885 0 0 1 .732.282c.174.188.19.421.064.957-.096.411-.212.571-.327.456Zm-3.235-.624c-.055-.066-.07-.25-.052-.626.042-.869.313-1.253.879-1.242a.818.818 0 0 1 .714.392 2.038 2.038 0 0 1 .073 1.375c-.082.159-.133.193-.266.178-.161-.019-.164-.027-.181-.5-.019-.538-.067-.639-.226-.48-.09.09-.1.176-.072.524s.018.424-.058.452c-.2.076-.3-.142-.3-.664 0-.308-.029-.5-.071-.518-.067-.022-.122.3-.154.9-.016.288-.142.383-.286.208Zm-.9-.349c-.091-.091-.093-.374-.007-.774.072-.338.046-.655-.028-.339-.118.5-.171.634-.316.79s-.167.16-.251.076-.084-.151-.026-.485a3.91 3.91 0 0 0 .063-.538v-.147l-.052.152c-.028.084-.1.311-.15.5-.109.392-.307.559-.487.41-.131-.108-.116-.332.061-.953.22-.772.529-.988 1.158-.812a.7.7 0 0 1 .574.768 5.09 5.09 0 0 1-.191 1.315.215.215 0 0 1-.351.036Zm51.068.016a6.412 6.412 0 0 1-.131-1.377c.056-.146.215-.1.261.08.123.48.017 1.542-.133 1.296Zm2.581-.316a6.642 6.642 0 0 1 .047-2.008c.041-.041.094-.056.117-.033a4.219 4.219 0 0 1 .1.756c.086 1.118-.086 1.957-.267 1.284Zm-56.134-.639a3.021 3.021 0 0 1 .075-.94c.052-.345-.036-.279-.305.228-.238.448-.369.464-.366.046a4.476 4.476 0 0 1 .054-.6c.079-.458-.075-.336-.329.261a1.9 1.9 0 0 1-.315.558c-.141.078-.284.01-.383-.182-.073-.141-.07-.2.022-.464a10.694 10.694 0 0 1 .538-1.287c.18-.281.665-.234 1.2.117a1.269 1.269 0 0 1 .579.9 5.136 5.136 0 0 1-.416 1.356c-.115.131-.309.137-.354.007Zm21.2-.388c-.13-.105-.144-.17-.163-.769-.03-.943.02-1.27.21-1.357.243-.111.319-.083.442.159.15.3.813 1.97.788 1.99s-.27.033-.576.054c-.492.038-.576.028-.701-.073Zm.711-.414a6.052 6.052 0 0 0-.462-1.144c-.073-.045-.072.1.007.683.083.625.085.628.306.628.177.003.188-.008.149-.165Zm-2.252.387c-.312-.05-.43-.1-.444-.169a8.239 8.239 0 0 1 .91-1.776.617.617 0 0 1 .392-.006c.246.048.3.083.336.226a5.284 5.284 0 0 1-.157 1.6c-.08.192-.105.207-.348.2a6.629 6.629 0 0 1-.69-.071Zm.694-.394a3.9 3.9 0 0 0 .146-1.143c-.073-.189-.326-.018-.415.282a3.664 3.664 0 0 1-.19.439c-.172.342-.181.455-.038.492.249.07.438.039.496-.061Zm2.483.435c-.134-.035-.321-.4-.649-1.276s-.324-1.128.009-1.32c.226-.13.226-.13.344-.008a18.351 18.351 0 0 1 1.01 2.4c.035.158.021.178-.155.213a1.222 1.222 0 0 1-.56-.005Zm.2-.68a3.281 3.281 0 0 0-.588-1.346.081.081 0 0 0-.083.079 5.808 5.808 0 0 0 .39 1.229c.117.183.28.205.28.042Zm-5.08.5a2.377 2.377 0 0 1-.535-.136 10.267 10.267 0 0 1 1.259-1.662.857.857 0 0 1 .768-.02c.183.067.212.1.2.264a5.424 5.424 0 0 1-.834 1.489c-.173.19-.183.191-.86.069Zm.967-.834c.237-.522.241-.542.128-.624a.281.281 0 0 0-.18-.066 3.269 3.269 0 0 0-.659 1.058.424.424 0 0 0 .379.184 1.639 1.639 0 0 0 .33-.548Zm4.976.856a12.909 12.909 0 0 1-1.105-2.711c0-.147.048-.219.227-.341.3-.207.515-.2.7.025a10.624 10.624 0 0 1 1.2 2.682c0 .139-.042.185-.242.265-.386.157-.695.189-.779.084Zm.53-.49c.053-.064 0-.227-.208-.707-.485-1.095-.559-1.218-.731-1.218a.209.209 0 0 0-.188.092 9.781 9.781 0 0 0 .746 1.779.23.23 0 0 0 .379.057Zm6.213.414a2.058 2.058 0 0 1-1.348-1.166c-.276-.555-.266-.562.66-.524a2.414 2.414 0 0 0 1.327-.163 6 6 0 0 0 1.04-.516c.479-.312.975-.745.917-.8a1.213 1.213 0 0 0-.384.15 3.025 3.025 0 0 1-2.616.292 1.421 1.421 0 0 1-.841-.82c-.106-.3-.123-.651-.035-.706a2.2 2.2 0 0 1 .567.037 2.5 2.5 0 0 0 1.717-.313 4.185 4.185 0 0 0 1.282-.906 2.306 2.306 0 0 0-.633-.08 2.117 2.117 0 0 1-1.019-.224 2 2 0 0 1-.991-.775c-.294-.443-.288-.448.495-.449 1.084 0 2.114-.151 2.114-.308 0-.031-.09-.056-.2-.056a2.959 2.959 0 0 1-1.179-.344 1.126 1.126 0 0 1-.593-.891l-.005-.255.908-.011a4.109 4.109 0 0 0 1.926-.315l.131-.106-.189-.363a1.849 1.849 0 0 1-.1-1.729c.251-.488.395-.531.7-.211.114.118.245.207.29.2a.782.782 0 0 0 .217-.353c.074-.185.177-.342.232-.353a1.672 1.672 0 0 1 .547.34c.7.56.661.553 1.061.191.211-.191.377-.3.433-.275a.618.618 0 0 0 .112.035 5.731 5.731 0 0 1 .33.54 3.309 3.309 0 0 0 2.622 1.8c1.466.29 1.892.492 2.234 1.062a1.13 1.13 0 0 1 .051 1.2c-.145.283-.489.682-.588.682-.028 0-.082-.114-.119-.253a.833.833 0 0 0-.464-.637.927.927 0 0 0-.687-.024c-.114.072-.083.1.214.2.2.064.245.111.261.252.024.207-.141.405-.523.63-.282.166-.29.166-2.143.044-.525-.035-.593-.027-.737.087-.248.2-.321.576-.316 1.648.007 1.439.179 2.077.709 2.63a1.675 1.675 0 0 0 1.908.487 1.386 1.386 0 0 1 .319-.133c.093 0 .077.466-.023.66a2.055 2.055 0 0 1-.854.738 2.216 2.216 0 0 1-.7.049 2.127 2.127 0 0 1-1.055-.316l-.582-.289-.2.232c-.415.481-.469.522-.644.479a1.872 1.872 0 0 1-.945-.815c-.454-.631-.551-.715-.725-.632a5.286 5.286 0 0 0-.6.456 4.731 4.731 0 0 1-1.7.919 3.459 3.459 0 0 1-1.588.079Zm1.126-.546a4.585 4.585 0 0 0 2.032-1.037 1.38 1.38 0 0 0 .5-.979c.014-.271 0-.292-.139-.309-.109-.013-.3.085-.639.33a7.075 7.075 0 0 1-2.814 1.4c-.629.126-.682.159-.529.328a1.091 1.091 0 0 0 .237.194 2.415 2.415 0 0 0 .887.135Zm4.6-.129a2.16 2.16 0 0 0 .005-1.188c-.064-.064-.139-.047-.406.093-.5.26-.537.323-.4.627a.9.9 0 0 0 .377.409c.312.191.316.191.423.062Zm2.732-.017c0-.033-.062-.061-.137-.062a3.647 3.647 0 0 1-.652-.18 2.987 2.987 0 0 0-.536-.157c-.033.033.365.324.536.392.195.078.789.084.789.007Zm-3.55-1.608a2.465 2.465 0 0 0 .067-1.274c-.082-.109-.1-.109-.3-.012a1.4 1.4 0 0 0-.352.247c-.122.13-.133.194-.113.641s.036.509.2.646.188.14.3.066a.722.722 0 0 0 .195-.315Zm-3.65-.918a7.067 7.067 0 0 0 2.452-1.907.844.844 0 0 0 .244-.6c0-.452-.117-.413-.81.264a6.154 6.154 0 0 1-2.962 1.69c-.592.091-.739.151-.719.294a.4.4 0 0 0 .232.24 3.091 3.091 0 0 0 1.563.019Zm4.636-.228a1.842 1.842 0 0 0 .084-1.262c-.138-.271-.282-.3-.424-.082-.212.323-.082 1.6.163 1.6.036-.002.115-.114.176-.256Zm-1.651-.414c.5-.37.9-1.115.74-1.405-.139-.261-.919.349-1.234.964-.1.2-.133.512-.059.586.089.09.313.031.552-.145Zm1.9-1.846a1.871 1.871 0 0 0 .174-.762c.033-.571-.018-.639-.406-.54a.561.561 0 0 1-.476-.036c-.2-.1-.235-.1-.517 0a.7.7 0 0 0-.418.291.729.729 0 0 0 0 .775l.114.141.249-.165a1.254 1.254 0 0 1 .295-.167c.031 0 .131.13.223.289.355.61.522.649.757.174Zm-3.581-.5a4.871 4.871 0 0 0 1.389-.717c.109-.116.121-.168.071-.3a1.3 1.3 0 0 1 .583-1.3c.708-.6.761-.665.708-.853a3.516 3.516 0 0 1 0-1.049c.011-.184-.026-.239-.311-.473-.178-.146-.349-.249-.38-.229a1.727 1.727 0 0 0 .034.977c.115.377.114.451 0 .451-.146 0-.6-.458-.919-.917a2.014 2.014 0 0 0-.336-.421c-.027 0-.092.067-.146.148-.089.135-.089.181 0 .523a1.734 1.734 0 0 0 .638 1 1.422 1.422 0 0 1 .309.373c0 .039-.134.129-.3.2a4.633 4.633 0 0 1-2.028.357c-1.162.034-1.268.091-.673.364a3 3 0 0 0 1.657.144c.553-.086.631-.036.623.394-.009.46-.26.648-1.166.87a11.865 11.865 0 0 1-1.6.252c-.117 0 .107.186.287.238a4.168 4.168 0 0 0 1.556-.031Zm6.961-.448c.039-.064-.217-.141-.818-.248-.545-.1-.76-.22-.691-.4a4.545 4.545 0 0 1 2.038-.614 1.537 1.537 0 0 1 .928.123c.221.088.415.161.431.161.093 0 .009-.412-.119-.579-.2-.257-.57-.426-1.345-.609-.9-.213-.886-.215-1.239.234a8.435 8.435 0 0 1-.944.928 6.474 6.474 0 0 0-.642.585c0 .063.332.155 1.034.288.351.066.694.133.761.147a1.043 1.043 0 0 0 .601-.015Zm-4.7-.893a3.214 3.214 0 0 0 .448-.3 1.193 1.193 0 0 1 .313-.205c.07 0 .133.146.133.309a.106.106 0 0 0 .1.117 1.2 1.2 0 0 0 .509-.49 1.718 1.718 0 0 1 .472-.294c.469-.237.684-.461.684-.713 0-.084-.062-.05-.259.141a1.014 1.014 0 0 1-1.139.282c-.338-.094-.388-.095-.569-.008a3.012 3.012 0 0 0-.953.9c-.07.168-.053.367.031.367a1.238 1.238 0 0 0 .23-.104Zm2.849-.616c.431-.443.662-.729.662-.818 0-.031-.05-.02-.111.023a9.771 9.771 0 0 0-.991 1.1c-.116.213.048.099.439-.303Zm-.967-1.217c.145-.127.069-.217-.148-.174a.376.376 0 0 1-.473-.265c-.094-.226-.168-.236-.22-.028a.469.469 0 0 0 .3.543.464.464 0 0 0 .54-.074Zm.169-1.01a1.859 1.859 0 0 0-.422-.615c-.123-.076-.184.026-.12.2.126.323.541.646.541.413ZM19.391 18.826c-.452-.09-.721-.2-.756-.308-.012-.038.1-.165.239-.281a26.267 26.267 0 0 1 2.474-1.687c.143 0 .556.353.556.476a13.757 13.757 0 0 1-1.593 1.8c-.162.112-.353.112-.92 0Zm1.378-1.009c.656-.651.666-.665.538-.756s-.175-.062-.954.464c-.808.546-.984.715-.92.882.046.119.407.207.551.133a8.823 8.823 0 0 0 .784-.723Zm16 1c-.028-.073.046-.18.26-.371a2.582 2.582 0 0 1 .875-.621 2.87 2.87 0 0 1 .611.965 4.528 4.528 0 0 1-1.319.131c-.31.001-.398-.02-.429-.101Zm-13.058-2a.523.523 0 0 1 .059-.7c.186-.147.54-.169.591-.037a1.961 1.961 0 0 1-.154.734.479.479 0 0 1-.499.01Zm.375-.418c.016-.139 0-.168-.091-.151-.07.013-.118.085-.131.193-.016.139 0 .168.091.151.067-.006.116-.077.128-.185Zm-1.7.354a1 1 0 0 1-.353-.175 5.487 5.487 0 0 1-.122-1.233 11.805 11.805 0 0 0-.095-1.252 1.387 1.387 0 0 0-.343-.325c-.475-.349-.518-.536-.265-1.151a1.941 1.941 0 0 0 .151-.675 1.072 1.072 0 0 0-.269-.721 7.026 7.026 0 0 1-.929-2.827c.04-.357.184-.469.666-.522a1.717 1.717 0 0 0 1.108-.36.717.717 0 0 1 .6-.219 2.414 2.414 0 0 1 1.3.507c.168.141.195.209.231.58a1.132 1.132 0 0 0 .287.747c.135.18.338.463.45.631s.329.464.481.659c.3.391.343.585.178.91-.117.232-.324.469-.41.469a.5.5 0 0 1-.2-.132c-.161-.151-.177-.094-.057.2.1.241.077.33-.133.555-.184.2-.293.209-.464.049l-.126-.118.021.293c.019.273.006.3-.188.453-.242.185-.386.2-.544.057-.218-.2-.237-.013-.068.652a5.373 5.373 0 0 1 .167 1.684c0 .971 0 1.056-.117 1.167a1.092 1.092 0 0 1-.96.105Zm.532-.732c.087-.133.1-.266.064-.928a13.931 13.931 0 0 0-.161-1.464c-.2-1.146-.247-1.019.693-2.076a6.711 6.711 0 0 0 .854-1.085c.056-.257-.112-.642-.516-1.179-.348-.461-.368-.507-.355-.794.016-.352-.03-.4-.54-.593-.428-.16-.479-.155-.7.066a1.249 1.249 0 0 1-.916.425c-.508.08-.612.161-.55.428a7.008 7.008 0 0 0 .694 1.85 2.16 2.16 0 0 1 .38 2.009l-.1.386.214.324c.3.459.343.61.419 1.618.069.9.145 1.17.333 1.17.042.006.128-.064.184-.149Zm-1.027-5.779c-.348-.194-.146-.941.255-.941a.481.481 0 0 1 .491.484.488.488 0 0 1-.749.465Zm1.912 2.609c.124-.112.137-.191.053-.324-.048-.076-.081-.067-.212.056-.282.27-.126.531.156.276Zm.946-1.894c.254-.286.323-.4.271-.452-.091-.091-.137-.048-1.212 1.126-.66.72-.869.986-.838 1.065s.182-.042.74-.626c.382-.394.849-.895 1.036-1.106Zm-.178 1.17a.314.314 0 0 0-.105-.236c-.112-.1-.127-.1-.161-.012a.517.517 0 0 0 0 .256c.044.194.236.189.263-.001Zm.685-.944c.09-.126.113-.207.072-.249-.081-.081-.477.266-.416.365.072.13.203.086.341-.106Zm-.552 5.264a.952.952 0 0 1 .018-.69 1.258 1.258 0 0 1 .432-.332l.357-.186.115.141a.7.7 0 0 1 .115.458c0 .268-.026.34-.167.469-.364.333-.777.4-.873.147Zm.553-.211a.256.256 0 0 0 .118-.237c0-.2-.091-.255-.289-.181-.107.04-.137.1-.137.266-.003.237.083.279.305.159Zm.771-.469c-.345-.382-.084-1.171.387-1.171.232 0 .36.2.36.565s-.073.508-.344.621-.29.121-.407-.008Zm.444-.384a.527.527 0 0 0 .027-.308c-.031-.141-.069-.178-.167-.164a.3.3 0 0 0-.133.479c.133.157.186.156.269.003Zm-2.728.3a.627.627 0 0 1-.073-.336c0-.224.038-.3.254-.538.361-.392.5-.36.525.12a1.582 1.582 0 0 1-.05.524c-.108.258-.498.394-.659.232Zm.441-.392c.06-.238-.067-.332-.211-.156-.13.159-.1.316.062.316.063.003.121-.058.146-.158Zm.52-.144a1.518 1.518 0 0 1-.048-.53c.017-.387.028-.414.225-.546a.837.837 0 0 1 .377-.139c.145 0 .18.034.234.228.143.515.047.839-.3 1.019-.246.127-.413.114-.491-.03Zm.45-.4c.059-.154.043-.441-.028-.484s-.3.133-.3.221a.972.972 0 0 0 .059.2c.063.18.209.209.266.065Zm.645-.33a1.967 1.967 0 0 1-.1-.511l-.036-.389.249-.265c.207-.221.267-.254.358-.2a1 1 0 0 1 .24 1.109.889.889 0 0 1-.539.376.227.227 0 0 1-.175-.118Zm.475-.438a.608.608 0 0 0-.012-.591c-.18-.149-.413.293-.283.537.073.145.183.168.292.057Zm-2.509.364a.932.932 0 0 1 .012-.851c.4-.345.56-.255.607.334.028.345.016.41-.1.524a.329.329 0 0 1-.522-.005Zm.381-.433c.016-.2 0-.23-.091-.212s-.116.086-.13.254c-.016.2 0 .23.091.212s.115-.084.126-.252Zm.452-.231a.843.843 0 0 1-.076-.419c0-.295.023-.364.171-.5.262-.251.408-.218.523.121a1.81 1.81 0 0 1 .1.415c-.006.272-.545.564-.721.386Zm.461-.41c.028-.288-.086-.383-.237-.2a.554.554 0 0 0-.117.293c0 .127.025.147.167.13s.167-.048.183-.221Zm-5.59-.276a32.684 32.684 0 0 0-1.065-.22c-.855-.163-1-.211-1-.324 0-.133.172-.245.807-.529a4.229 4.229 0 0 0 .723-.386c.124-.116.125-.124.018-.2a1.1 1.1 0 0 0-.49-.081c-.551 0-.571-.015-.571-.422a1.711 1.711 0 0 1 .522-1.276 2.185 2.185 0 0 1 1.226-.724c.147.017.19.084.415.658a14.434 14.434 0 0 0 .816 1.764 1.278 1.278 0 0 1 .185.578 1.811 1.811 0 0 1-.522 1.093 1.466 1.466 0 0 1-1.064.069Zm.656-.558a.85.85 0 0 0 .317-.674c0-.177-.06-.3-.275-.577a4.2 4.2 0 0 1-.522-.977 5.843 5.843 0 0 0-.3-.681c-.17-.177-.746.3-.857.714-.084.312-.012.373.5.431.414.047.683.159.741.31a1.865 1.865 0 0 1 .038.431c0 .352-.052.435-.459.731-.224.163-.151.267.23.329.41.07.442.068.587-.033Zm5.278.4a1.079 1.079 0 0 1 0-.851c.117-.226.439-.494.545-.454a1.97 1.97 0 0 1 .4.883c0 .166-.078.274-.326.465s-.504.186-.62-.037Zm.52-.238c.121-.1.132-.14.082-.313-.078-.274-.247-.374-.364-.216a.563.563 0 0 0-.015.569c.097.104.132.099.297-.034Zm-9.525-.163c-.638-.338-.729-.481-.69-1.091a1.461 1.461 0 0 1 .72-1.165 3.036 3.036 0 0 1 1.19-.608c.109.042.108.084-.011.878l-.1.65-.367.346c-.351.331-.365.356-.33.578.078.485.079.474-.081.491a.7.7 0 0 1-.331-.073Zm.263-1.177c.286-.256.33-.327.358-.575s.019-.283-.09-.283c-.316 0-.9.922-.7 1.115.061.072.092.054.432-.251Z"/></svg>